<?xml version="1.0" encoding="UTF-8" standalone="no"?>
<svg
   width="670pt"
   height="396pt"
   viewBox="0 0 670 396"
   version="1.1"
   id="svg218"
   sodipodi:docname="clin_shap_class_0.svg"
   inkscape:export-filename="clin_shap_class_0_large.png"
   inkscape:export-xdpi="96"
   inkscape:export-ydpi="96"
   inkscape:version="1.4 (e7c3feb1, 2024-10-09)"
   xmlns:inkscape="http://www.inkscape.org/namespaces/inkscape"
   xmlns:sodipodi="http://sodipodi.sourceforge.net/DTD/sodipodi-0.dtd"
   xmlns:xlink="http://www.w3.org/1999/xlink"
   xmlns="http://www.w3.org/2000/svg"
   xmlns:svg="http://www.w3.org/2000/svg"
   xmlns:rdf="http://www.w3.org/1999/02/22-rdf-syntax-ns#"
   xmlns:cc="http://creativecommons.org/ns#"
   xmlns:dc="http://purl.org/dc/elements/1.1/">
  <sodipodi:namedview
     id="namedview218"
     pagecolor="#ffffff"
     bordercolor="#000000"
     borderopacity="0.25"
     inkscape:showpageshadow="2"
     inkscape:pageopacity="0.0"
     inkscape:pagecheckerboard="0"
     inkscape:deskcolor="#d1d1d1"
     inkscape:document-units="pt"
     inkscape:zoom="0.39559262"
     inkscape:cx="420.88752"
     inkscape:cy="309.66199"
     inkscape:window-width="1104"
     inkscape:window-height="906"
     inkscape:window-x="0"
     inkscape:window-y="136"
     inkscape:window-maximized="0"
     inkscape:current-layer="figure_1" />
  <metadata
     id="metadata1">
    <rdf:RDF>
      <cc:Work>
        <dc:type
           rdf:resource="http://purl.org/dc/dcmitype/StillImage" />
        <dc:date>2024-10-11T19:09:20.961593</dc:date>
        <dc:format>image/svg+xml</dc:format>
        <dc:creator>
          <cc:Agent>
            <dc:title>Matplotlib v3.7.1, https://matplotlib.org/</dc:title>
          </cc:Agent>
        </dc:creator>
      </cc:Work>
    </rdf:RDF>
  </metadata>
  <defs
     id="defs1">
    <style
       type="text/css"
       id="style1">*{stroke-linejoin: round; stroke-linecap: butt}</style>
  </defs>
  <g
     id="figure_1">
    <g
       id="patch_1"
       transform="scale(1.1645738,1)">
      <path
         d="M 0,396 H 576 V 0 H 0 Z"
         style="fill:#ffffff"
         id="path1" />
    </g>
    <g
       id="axes_1">
      <g
         id="patch_2"
         transform="translate(81.125195,3.7917795)">
        <path
           d="M 177.19,350.44 H 565.2 V 10.8 H 177.19 Z"
           style="fill:#ffffff"
           id="path2" />
      </g>
      <g
         id="line2d_1"
         transform="translate(81.125195,3.7917795)">
        <path
           d="M 177.19,350.44 V 10.8"
           clip-path="url(#p2efdc567fe)"
           style="fill:none;stroke:#999999;stroke-width:1.5;stroke-linecap:square"
           id="path3" />
      </g>
      <g
         id="patch_3"
         transform="translate(81.125195,3.7917795)">
        <path
           d="m 177.19,330.37036 h 0.61286 V 308.75691 H 177.19 Z"
           clip-path="url(#p2efdc567fe)"
           style="fill:#008bfb"
           id="path4" />
      </g>
      <g
         id="patch_4"
         transform="translate(81.125195,3.7917795)">
        <path
           d="m 177.19,299.494 h 3.29818 V 277.88054 H 177.19 Z"
           clip-path="url(#p2efdc567fe)"
           style="fill:#008bfb"
           id="path5" />
      </g>
      <g
         id="patch_5"
         transform="translate(81.125195,3.7917795)">
        <path
           d="m 177.19,268.61764 h 5.66017 V 247.00418 H 177.19 Z"
           clip-path="url(#p2efdc567fe)"
           style="fill:#008bfb"
           id="path6" />
      </g>
      <g
         id="patch_6"
         transform="translate(81.125195,3.7917795)">
        <path
           d="m 177.19,237.74127 h 7.20475 V 216.12782 H 177.19 Z"
           clip-path="url(#p2efdc567fe)"
           style="fill:#008bfb"
           id="path7" />
      </g>
      <g
         id="patch_7"
         transform="translate(81.125195,3.7917795)">
        <path
           d="m 177.19,206.86491 h 8.77488 V 185.25145 H 177.19 Z"
           clip-path="url(#p2efdc567fe)"
           style="fill:#008bfb"
           id="path8" />
      </g>
      <g
         id="patch_8"
         transform="translate(81.125195,3.7917795)">
        <path
           d="m 177.19,175.98854 h 11.45779 V 154.37509 H 177.19 Z"
           clip-path="url(#p2efdc567fe)"
           style="fill:#008bfb"
           id="path9" />
      </g>
      <g
         id="patch_9"
         transform="translate(81.125195,3.7917795)">
        <path
           d="m 177.19,145.11218 h 25.58159 V 123.49873 H 177.19 Z"
           clip-path="url(#p2efdc567fe)"
           style="fill:#008bfb"
           id="path10" />
      </g>
      <g
         id="patch_10"
         transform="translate(81.125195,3.7917795)">
        <path
           d="m 177.19,114.23582 h 63.41376 V 92.622364 H 177.19 Z"
           clip-path="url(#p2efdc567fe)"
           style="fill:#008bfb"
           id="path11" />
      </g>
      <g
         id="patch_11"
         transform="translate(81.125195,3.7917795)">
        <path
           d="m 177.19,83.359455 h 64.44171 V 61.746 H 177.19 Z"
           clip-path="url(#p2efdc567fe)"
           style="fill:#008bfb"
           id="path12" />
      </g>
      <g
         id="patch_12"
         transform="translate(81.125195,3.7917795)">
        <path
           d="M 177.19,52.483091 H 546.72333 V 30.869636 H 177.19 Z"
           clip-path="url(#p2efdc567fe)"
           style="fill:#008bfb"
           id="path13" />
      </g>
      <g
         id="matplotlib.axis_1"
         transform="translate(81.125195,1.9193053)">
        <g
           id="xtick_1">
          <g
             id="line2d_2">
            <defs
               id="defs13">
              <path
                 id="mac47e077a9"
                 d="M 0,0 V 3.5"
                 style="stroke:#333333;stroke-width:0.8" />
            </defs>
            <g
               id="g13">
              <use
                 xlink:href="#mac47e077a9"
                 x="177.19"
                 y="350.44"
                 style="fill:#333333;stroke:#333333;stroke-width:0.8"
                 id="use13" />
            </g>
          </g>
          <g
             id="text_1">
            <!-- 0.00 -->
            <g
               style="fill:#333333"
               transform="matrix(0.11,0,0,-0.11,164.94391,365.79828)"
               id="g17">
              <defs
                 id="defs14">
                <path
                   id="DejaVuSans-30"
                   d="m 2034,4250 q -487,0 -733,-480 -245,-479 -245,-1442 0,-959 245,-1439 246,-480 733,-480 491,0 736,480 246,480 246,1439 0,963 -246,1442 -245,480 -736,480 z m 0,500 q 785,0 1199,-621 414,-620 414,-1801 0,-1178 -414,-1799 -414,-620 -1199,-620 -784,0 -1198,620 -414,621 -414,1799 0,1181 414,1801 414,621 1198,621 z"
                   transform="scale(0.015625)" />
                <path
                   id="DejaVuSans-2e"
                   d="m 684,794 h 660 V 0 H 684 Z"
                   transform="scale(0.015625)" />
              </defs>
              <use
                 xlink:href="#DejaVuSans-30"
                 id="use14" />
              <use
                 xlink:href="#DejaVuSans-2e"
                 x="63.623047"
                 id="use15" />
              <use
                 xlink:href="#DejaVuSans-30"
                 x="95.410156"
                 id="use16" />
              <use
                 xlink:href="#DejaVuSans-30"
                 x="159.0332"
                 id="use17" />
            </g>
          </g>
        </g>
        <g
           id="xtick_2">
          <g
             id="line2d_3">
            <g
               id="g18">
              <use
                 xlink:href="#mac47e077a9"
                 x="246.41956"
                 y="350.44"
                 style="fill:#333333;stroke:#333333;stroke-width:0.8"
                 id="use18" />
            </g>
          </g>
          <g
             id="text_2">
            <!-- 0.05 -->
            <g
               style="fill:#333333"
               transform="matrix(0.11,0,0,-0.11,234.17346,365.79828)"
               id="g22">
              <defs
                 id="defs18">
                <path
                   id="DejaVuSans-35"
                   d="M 691,4666 H 3169 V 4134 H 1269 V 2991 q 137,47 274,70 138,23 276,23 781,0 1237,-428 457,-428 457,-1159 Q 3513,744 3044,326 2575,-91 1722,-91 1428,-91 1123,-41 819,9 494,109 v 635 q 281,-153 581,-228 300,-75 634,-75 541,0 856,284 316,284 316,772 0,487 -316,771 -315,285 -856,285 -253,0 -505,-56 -251,-56 -513,-175 z"
                   transform="scale(0.015625)" />
              </defs>
              <use
                 xlink:href="#DejaVuSans-30"
                 id="use19" />
              <use
                 xlink:href="#DejaVuSans-2e"
                 x="63.623047"
                 id="use20" />
              <use
                 xlink:href="#DejaVuSans-30"
                 x="95.410156"
                 id="use21" />
              <use
                 xlink:href="#DejaVuSans-35"
                 x="159.0332"
                 id="use22" />
            </g>
          </g>
        </g>
        <g
           id="xtick_3">
          <g
             id="line2d_4">
            <g
               id="g23">
              <use
                 xlink:href="#mac47e077a9"
                 x="315.64911"
                 y="350.44"
                 style="fill:#333333;stroke:#333333;stroke-width:0.8"
                 id="use23" />
            </g>
          </g>
          <g
             id="text_3">
            <!-- 0.10 -->
            <g
               style="fill:#333333"
               transform="matrix(0.11,0,0,-0.11,303.40301,365.79828)"
               id="g27">
              <defs
                 id="defs23">
                <path
                   id="DejaVuSans-31"
                   d="M 794,531 H 1825 V 4091 L 703,3866 v 575 l 1116,225 h 631 V 531 H 3481 V 0 H 794 Z"
                   transform="scale(0.015625)" />
              </defs>
              <use
                 xlink:href="#DejaVuSans-30"
                 id="use24" />
              <use
                 xlink:href="#DejaVuSans-2e"
                 x="63.623047"
                 id="use25" />
              <use
                 xlink:href="#DejaVuSans-31"
                 x="95.410156"
                 id="use26" />
              <use
                 xlink:href="#DejaVuSans-30"
                 x="159.0332"
                 id="use27" />
            </g>
          </g>
        </g>
        <g
           id="xtick_4">
          <g
             id="line2d_5">
            <g
               id="g28">
              <use
                 xlink:href="#mac47e077a9"
                 x="384.87866"
                 y="350.44"
                 style="fill:#333333;stroke:#333333;stroke-width:0.8"
                 id="use28" />
            </g>
          </g>
          <g
             id="text_4">
            <!-- 0.15 -->
            <g
               style="fill:#333333"
               transform="matrix(0.11,0,0,-0.11,372.63256,365.79828)"
               id="g32">
              <use
                 xlink:href="#DejaVuSans-30"
                 id="use29" />
              <use
                 xlink:href="#DejaVuSans-2e"
                 x="63.623047"
                 id="use30" />
              <use
                 xlink:href="#DejaVuSans-31"
                 x="95.410156"
                 id="use31" />
              <use
                 xlink:href="#DejaVuSans-35"
                 x="159.0332"
                 id="use32" />
            </g>
          </g>
        </g>
        <g
           id="xtick_5">
          <g
             id="line2d_6">
            <g
               id="g33">
              <use
                 xlink:href="#mac47e077a9"
                 x="454.10822"
                 y="350.44"
                 style="fill:#333333;stroke:#333333;stroke-width:0.8"
                 id="use33" />
            </g>
          </g>
          <g
             id="text_5">
            <!-- 0.20 -->
            <g
               style="fill:#333333"
               transform="matrix(0.11,0,0,-0.11,441.86211,365.79828)"
               id="g37">
              <defs
                 id="defs33">
                <path
                   id="DejaVuSans-32"
                   d="M 1228,531 H 3431 V 0 H 469 v 531 q 359,372 979,998 621,627 780,809 303,340 423,576 121,236 121,464 0,372 -261,606 -261,235 -680,235 -297,0 -627,-103 -329,-103 -704,-313 v 638 q 381,153 712,231 332,78 607,78 725,0 1156,-363 431,-362 431,-968 0,-288 -108,-546 -107,-257 -392,-607 -78,-91 -497,-524 Q 1991,1309 1228,531 Z"
                   transform="scale(0.015625)" />
              </defs>
              <use
                 xlink:href="#DejaVuSans-30"
                 id="use34" />
              <use
                 xlink:href="#DejaVuSans-2e"
                 x="63.623047"
                 id="use35" />
              <use
                 xlink:href="#DejaVuSans-32"
                 x="95.410156"
                 id="use36" />
              <use
                 xlink:href="#DejaVuSans-30"
                 x="159.0332"
                 id="use37" />
            </g>
          </g>
        </g>
        <g
           id="xtick_6">
          <g
             id="line2d_7">
            <g
               id="g38">
              <use
                 xlink:href="#mac47e077a9"
                 x="523.33777"
                 y="350.44"
                 style="fill:#333333;stroke:#333333;stroke-width:0.8"
                 id="use38" />
            </g>
          </g>
          <g
             id="text_6">
            <!-- 0.25 -->
            <g
               style="fill:#333333"
               transform="matrix(0.11,0,0,-0.11,511.09166,365.79828)"
               id="g42">
              <use
                 xlink:href="#DejaVuSans-30"
                 id="use39" />
              <use
                 xlink:href="#DejaVuSans-2e"
                 x="63.623047"
                 id="use40" />
              <use
                 xlink:href="#DejaVuSans-32"
                 x="95.410156"
                 id="use41" />
              <use
                 xlink:href="#DejaVuSans-35"
                 x="159.0332"
                 id="use42" />
            </g>
          </g>
        </g>
        <g
           id="text_7">
          <!-- mean(|SHAP value|) (average impact on model output magnitude) -->
          <g
             transform="matrix(0.13,0,0,-0.13,154.7257,382.02078)"
             id="g103">
            <defs
               id="defs42">
              <path
                 id="DejaVuSans-6d"
                 d="m 3328,2828 q 216,388 516,572 300,184 706,184 547,0 844,-383 297,-382 297,-1088 V 0 h -578 v 2094 q 0,503 -179,746 -178,244 -543,244 -447,0 -707,-297 -259,-296 -259,-809 V 0 h -578 v 2094 q 0,506 -178,748 -178,242 -550,242 -441,0 -701,-298 -259,-298 -259,-808 V 0 H 581 v 3500 h 578 v -544 q 197,322 472,475 275,153 653,153 382,0 649,-194 267,-193 395,-562 z"
                 transform="scale(0.015625)" />
              <path
                 id="DejaVuSans-65"
                 d="M 3597,1894 V 1613 H 953 q 38,-594 358,-905 320,-311 892,-311 331,0 642,81 311,81 618,244 V 178 Q 3153,47 2828,-22 2503,-91 2169,-91 1331,-91 842,396 353,884 353,1716 q 0,859 464,1363 464,505 1252,505 706,0 1117,-455 411,-454 411,-1235 z m -575,169 q -6,471 -264,752 -258,282 -683,282 -481,0 -770,-272 -289,-272 -333,-766 z"
                 transform="scale(0.015625)" />
              <path
                 id="DejaVuSans-61"
                 d="m 2194,1759 q -697,0 -966,-159 -269,-159 -269,-544 0,-306 202,-486 202,-179 548,-179 479,0 768,339 289,339 289,901 v 128 z m 1147,238 V 0 H 2766 V 531 Q 2569,213 2275,61 1981,-91 1556,-91 q -537,0 -855,302 -317,302 -317,808 0,590 395,890 396,300 1180,300 h 807 v 57 q 0,397 -261,614 -261,217 -733,217 -300,0 -585,-72 -284,-72 -546,-216 v 532 q 315,122 612,182 297,61 578,61 760,0 1135,-394 375,-393 375,-1193 z"
                 transform="scale(0.015625)" />
              <path
                 id="DejaVuSans-6e"
                 d="M 3513,2113 V 0 h -575 v 2094 q 0,497 -194,743 -194,247 -581,247 -466,0 -735,-297 -269,-296 -269,-809 V 0 H 581 v 3500 h 578 v -544 q 207,316 486,472 280,156 646,156 603,0 912,-373 310,-373 310,-1098 z"
                 transform="scale(0.015625)" />
              <path
                 id="DejaVuSans-28"
                 d="m 1984,4856 q -418,-718 -622,-1422 -203,-703 -203,-1425 0,-721 205,-1429 205,-708 620,-1424 h -500 q -468,735 -701,1444 -233,709 -233,1409 0,697 231,1403 232,707 703,1444 z"
                 transform="scale(0.015625)" />
              <path
                 id="DejaVuSans-7c"
                 d="M 1344,4891 V -1509 H 813 v 6400 z"
                 transform="scale(0.015625)" />
              <path
                 id="DejaVuSans-53"
                 d="m 3425,4513 v -616 q -359,172 -678,256 -319,85 -616,85 -515,0 -795,-200 -280,-200 -280,-569 0,-310 186,-468 186,-157 705,-254 l 381,-78 q 706,-135 1042,-474 336,-339 336,-907 0,-679 -455,-1029 -454,-350 -1332,-350 -331,0 -705,75 -373,75 -773,222 v 650 q 384,-215 753,-325 369,-109 725,-109 540,0 834,212 294,213 294,607 0,343 -211,537 -211,194 -692,291 l -385,75 q -706,140 -1022,440 -315,300 -315,835 0,619 436,975 436,356 1201,356 329,0 669,-60 341,-59 697,-177 z"
                 transform="scale(0.015625)" />
              <path
                 id="DejaVuSans-48"
                 d="m 628,4666 h 631 V 2753 h 2294 v 1913 h 631 V 0 H 3553 V 2222 H 1259 V 0 H 628 Z"
                 transform="scale(0.015625)" />
              <path
                 id="DejaVuSans-41"
                 d="M 2188,4044 1331,1722 h 1716 z m -357,622 h 716 L 4325,0 H 3669 L 3244,1197 H 1141 L 716,0 H 50 Z"
                 transform="scale(0.015625)" />
              <path
                 id="DejaVuSans-50"
                 d="M 1259,4147 V 2394 h 794 q 441,0 681,228 241,228 241,650 0,419 -241,647 -240,228 -681,228 z m -631,519 h 1425 q 785,0 1186,-355 402,-355 402,-1039 0,-691 -402,-1044 -401,-353 -1186,-353 H 1259 V 0 H 628 Z"
                 transform="scale(0.015625)" />
              <path
                 id="DejaVuSans-20"
                 transform="scale(0.015625)"
                 d="" />
              <path
                 id="DejaVuSans-76"
                 d="M 191,3500 H 800 L 1894,563 2988,3500 h 609 L 2284,0 h -781 z"
                 transform="scale(0.015625)" />
              <path
                 id="DejaVuSans-6c"
                 d="m 603,4863 h 575 V 0 H 603 Z"
                 transform="scale(0.015625)" />
              <path
                 id="DejaVuSans-75"
                 d="m 544,1381 v 2119 h 575 V 1403 q 0,-497 193,-746 194,-248 582,-248 465,0 735,297 271,297 271,810 v 1984 h 575 V 0 H 2900 V 538 Q 2691,219 2414,64 2138,-91 1772,-91 1169,-91 856,284 544,659 544,1381 Z m 1447,2203 z"
                 transform="scale(0.015625)" />
              <path
                 id="DejaVuSans-29"
                 d="m 513,4856 h 500 q 468,-737 701,-1444 233,-706 233,-1403 0,-700 -233,-1409 -233,-709 -701,-1444 H 513 q 415,716 620,1424 205,708 205,1429 0,722 -205,1425 -205,704 -620,1422 z"
                 transform="scale(0.015625)" />
              <path
                 id="DejaVuSans-72"
                 d="m 2631,2963 q -97,56 -211,82 -114,27 -251,27 -488,0 -749,-317 -261,-317 -261,-911 V 0 H 581 v 3500 h 578 v -544 q 182,319 472,473 291,155 707,155 59,0 131,-8 72,-7 159,-23 z"
                 transform="scale(0.015625)" />
              <path
                 id="DejaVuSans-67"
                 d="m 2906,1791 q 0,625 -258,968 -257,344 -723,344 -462,0 -720,-344 -258,-343 -258,-968 0,-622 258,-966 258,-344 720,-344 466,0 723,344 258,344 258,966 z M 3481,434 q 0,-893 -397,-1329 -396,-436 -1215,-436 -303,0 -572,45 -269,45 -522,139 v 559 q 253,-137 500,-202 247,-66 503,-66 566,0 847,295 281,295 281,892 V 616 Q 2728,306 2450,153 2172,0 1784,0 1141,0 747,490 353,981 353,1791 q 0,812 394,1302 394,491 1037,491 388,0 666,-153 278,-153 456,-462 v 531 h 575 z"
                 transform="scale(0.015625)" />
              <path
                 id="DejaVuSans-69"
                 d="m 603,3500 h 575 V 0 H 603 Z m 0,1363 h 575 V 4134 H 603 Z"
                 transform="scale(0.015625)" />
              <path
                 id="DejaVuSans-70"
                 d="M 1159,525 V -1331 H 581 v 4831 h 578 v -531 q 182,312 458,463 277,152 661,152 638,0 1036,-506 399,-506 399,-1331 0,-825 -399,-1332 -398,-506 -1036,-506 -384,0 -661,152 -276,152 -458,464 z m 1957,1222 q 0,634 -261,995 -261,361 -717,361 -457,0 -718,-361 -261,-361 -261,-995 0,-634 261,-995 261,-361 718,-361 456,0 717,361 261,361 261,995 z"
                 transform="scale(0.015625)" />
              <path
                 id="DejaVuSans-63"
                 d="m 3122,3366 v -538 q -244,135 -489,202 -245,67 -495,67 -560,0 -870,-355 -309,-354 -309,-995 0,-641 309,-996 310,-354 870,-354 250,0 495,67 245,67 489,202 V 134 Q 2881,22 2623,-34 2366,-91 2075,-91 1284,-91 818,406 353,903 353,1747 q 0,856 470,1346 471,491 1290,491 265,0 518,-55 253,-54 491,-163 z"
                 transform="scale(0.015625)" />
              <path
                 id="DejaVuSans-74"
                 d="M 1172,4494 V 3500 H 2356 V 3053 H 1172 V 1153 q 0,-428 117,-550 117,-122 477,-122 h 590 V 0 H 1766 Q 1100,0 847,248 594,497 594,1153 V 3053 H 172 v 447 h 422 v 994 z"
                 transform="scale(0.015625)" />
              <path
                 id="DejaVuSans-6f"
                 d="m 1959,3097 q -462,0 -731,-361 -269,-361 -269,-989 0,-628 267,-989 268,-361 733,-361 460,0 728,362 269,363 269,988 0,622 -269,986 -268,364 -728,364 z m 0,487 q 750,0 1178,-488 429,-487 429,-1349 Q 3566,888 3137,398 2709,-91 1959,-91 1206,-91 779,398 353,888 353,1747 q 0,862 426,1349 427,488 1180,488 z"
                 transform="scale(0.015625)" />
              <path
                 id="DejaVuSans-64"
                 d="m 2906,2969 v 1894 h 575 V 0 H 2906 V 525 Q 2725,213 2448,61 2172,-91 1784,-91 1150,-91 751,415 353,922 353,1747 q 0,825 398,1331 399,506 1033,506 388,0 664,-152 277,-151 458,-463 z M 947,1747 q 0,-634 261,-995 261,-361 717,-361 456,0 718,361 263,361 263,995 0,634 -263,995 -262,361 -718,361 -456,0 -717,-361 -261,-361 -261,-995 z"
                 transform="scale(0.015625)" />
            </defs>
            <use
               xlink:href="#DejaVuSans-6d"
               id="use43" />
            <use
               xlink:href="#DejaVuSans-65"
               x="97.412109"
               id="use44" />
            <use
               xlink:href="#DejaVuSans-61"
               x="158.93555"
               id="use45" />
            <use
               xlink:href="#DejaVuSans-6e"
               x="220.21484"
               id="use46" />
            <use
               xlink:href="#DejaVuSans-28"
               x="283.59375"
               id="use47" />
            <use
               xlink:href="#DejaVuSans-7c"
               x="322.60742"
               id="use48" />
            <use
               xlink:href="#DejaVuSans-53"
               x="356.29883"
               id="use49" />
            <use
               xlink:href="#DejaVuSans-48"
               x="419.77539"
               id="use50" />
            <use
               xlink:href="#DejaVuSans-41"
               x="494.9707"
               id="use51" />
            <use
               xlink:href="#DejaVuSans-50"
               x="563.37891"
               id="use52" />
            <use
               xlink:href="#DejaVuSans-20"
               x="623.68164"
               id="use53" />
            <use
               xlink:href="#DejaVuSans-76"
               x="655.46875"
               id="use54" />
            <use
               xlink:href="#DejaVuSans-61"
               x="714.64844"
               id="use55" />
            <use
               xlink:href="#DejaVuSans-6c"
               x="775.92773"
               id="use56" />
            <use
               xlink:href="#DejaVuSans-75"
               x="803.71094"
               id="use57" />
            <use
               xlink:href="#DejaVuSans-65"
               x="867.08984"
               id="use58" />
            <use
               xlink:href="#DejaVuSans-7c"
               x="928.61328"
               id="use59" />
            <use
               xlink:href="#DejaVuSans-29"
               x="962.30469"
               id="use60" />
            <use
               xlink:href="#DejaVuSans-20"
               x="1001.3184"
               id="use61" />
            <use
               xlink:href="#DejaVuSans-28"
               x="1033.1055"
               id="use62" />
            <use
               xlink:href="#DejaVuSans-61"
               x="1072.1191"
               id="use63" />
            <use
               xlink:href="#DejaVuSans-76"
               x="1133.3984"
               id="use64" />
            <use
               xlink:href="#DejaVuSans-65"
               x="1192.5781"
               id="use65" />
            <use
               xlink:href="#DejaVuSans-72"
               x="1254.1016"
               id="use66" />
            <use
               xlink:href="#DejaVuSans-61"
               x="1295.2148"
               id="use67" />
            <use
               xlink:href="#DejaVuSans-67"
               x="1356.4941"
               id="use68" />
            <use
               xlink:href="#DejaVuSans-65"
               x="1419.9707"
               id="use69" />
            <use
               xlink:href="#DejaVuSans-20"
               x="1481.4941"
               id="use70" />
            <use
               xlink:href="#DejaVuSans-69"
               x="1513.2812"
               id="use71" />
            <use
               xlink:href="#DejaVuSans-6d"
               x="1541.0645"
               id="use72" />
            <use
               xlink:href="#DejaVuSans-70"
               x="1638.4766"
               id="use73" />
            <use
               xlink:href="#DejaVuSans-61"
               x="1701.9531"
               id="use74" />
            <use
               xlink:href="#DejaVuSans-63"
               x="1763.2324"
               id="use75" />
            <use
               xlink:href="#DejaVuSans-74"
               x="1818.2129"
               id="use76" />
            <use
               xlink:href="#DejaVuSans-20"
               x="1857.4219"
               id="use77" />
            <use
               xlink:href="#DejaVuSans-6f"
               x="1889.209"
               id="use78" />
            <use
               xlink:href="#DejaVuSans-6e"
               x="1950.3906"
               id="use79" />
            <use
               xlink:href="#DejaVuSans-20"
               x="2013.7695"
               id="use80" />
            <use
               xlink:href="#DejaVuSans-6d"
               x="2045.5566"
               id="use81" />
            <use
               xlink:href="#DejaVuSans-6f"
               x="2142.9688"
               id="use82" />
            <use
               xlink:href="#DejaVuSans-64"
               x="2204.1504"
               id="use83" />
            <use
               xlink:href="#DejaVuSans-65"
               x="2267.627"
               id="use84" />
            <use
               xlink:href="#DejaVuSans-6c"
               x="2329.1504"
               id="use85" />
            <use
               xlink:href="#DejaVuSans-20"
               x="2356.9336"
               id="use86" />
            <use
               xlink:href="#DejaVuSans-6f"
               x="2388.7207"
               id="use87" />
            <use
               xlink:href="#DejaVuSans-75"
               x="2449.9023"
               id="use88" />
            <use
               xlink:href="#DejaVuSans-74"
               x="2513.2812"
               id="use89" />
            <use
               xlink:href="#DejaVuSans-70"
               x="2552.4902"
               id="use90" />
            <use
               xlink:href="#DejaVuSans-75"
               x="2615.9668"
               id="use91" />
            <use
               xlink:href="#DejaVuSans-74"
               x="2679.3457"
               id="use92" />
            <use
               xlink:href="#DejaVuSans-20"
               x="2718.5547"
               id="use93" />
            <use
               xlink:href="#DejaVuSans-6d"
               x="2750.3418"
               id="use94" />
            <use
               xlink:href="#DejaVuSans-61"
               x="2847.7539"
               id="use95" />
            <use
               xlink:href="#DejaVuSans-67"
               x="2909.0332"
               id="use96" />
            <use
               xlink:href="#DejaVuSans-6e"
               x="2972.5098"
               id="use97" />
            <use
               xlink:href="#DejaVuSans-69"
               x="3035.8887"
               id="use98" />
            <use
               xlink:href="#DejaVuSans-74"
               x="3063.6719"
               id="use99" />
            <use
               xlink:href="#DejaVuSans-75"
               x="3102.8809"
               id="use100" />
            <use
               xlink:href="#DejaVuSans-64"
               x="3166.2598"
               id="use101" />
            <use
               xlink:href="#DejaVuSans-65"
               x="3229.7363"
               id="use102" />
            <use
               xlink:href="#DejaVuSans-29"
               x="3291.2598"
               id="use103" />
          </g>
        </g>
      </g>
      <g
         id="matplotlib.axis_2"
         transform="translate(31.832062)">
        <g
           id="ytick_8"
           transform="translate(49.293133,3.7917795)">
          <text
             xml:space="preserve"
             style="font-size:20px;text-align:start;writing-mode:lr-tb;direction:ltr;text-anchor:start;fill:#000000;stroke-width:0.75"
             x="136.69063"
             y="104.85856"
             id="text220"><tspan
               sodipodi:role="line"
               style="stroke-width:0.75"
               x="136.69063"
               y="104.85856"
               id="tspan221">age</tspan></text>
        </g>
        <text
           xml:space="preserve"
           style="font-size:20px;text-align:start;writing-mode:lr-tb;direction:ltr;text-anchor:start;fill:#000000;stroke-width:0.75"
           x="24.950972"
           y="52.476109"
           id="text218"><tspan
             sodipodi:role="line"
             id="tspan218"
             style="stroke-width:0.75"
             x="24.950972"
             y="52.476109">respiratory_support</tspan></text>
        <text
           xml:space="preserve"
           style="font-size:20px;text-align:start;writing-mode:lr-tb;direction:ltr;text-anchor:start;fill:#000000;stroke-width:0.75"
           x="187.85623"
           y="80.563232"
           id="text219"><tspan
             sodipodi:role="line"
             id="tspan219"
             style="stroke-width:0.75"
             x="187.85623"
             y="80.563232">sex</tspan></text>
        <text
           xml:space="preserve"
           style="font-size:20px;text-align:start;writing-mode:lr-tb;direction:ltr;text-anchor:start;fill:#000000;stroke-width:0.75"
           x="176.62138"
           y="144.22733"
           id="text222"><tspan
             sodipodi:role="line"
             id="tspan222"
             style="stroke-width:0.75"
             x="176.62138"
             y="144.22733">copd</tspan></text>
        <text
           xml:space="preserve"
           style="font-size:20px;text-align:start;writing-mode:lr-tb;direction:ltr;text-anchor:start;fill:#000000;stroke-width:0.75"
           x="8.0986986"
           y="174.18694"
           id="text223"><tspan
             sodipodi:role="line"
             id="tspan223"
             style="stroke-width:0.75"
             x="8.0986986"
             y="174.18694">chronic_hypertension</tspan></text>
        <text
           xml:space="preserve"
           style="font-size:20px;text-align:start;writing-mode:lr-tb;direction:ltr;text-anchor:start;fill:#000000;stroke-width:0.75"
           x="38.689739"
           y="206.08925"
           id="text224"><tspan
             sodipodi:role="line"
             id="tspan224"
             style="stroke-width:0.75"
             x="38.689739"
             y="206.08925">cigarette_smoking</tspan></text>
        <text
           xml:space="preserve"
           style="font-size:20px;text-align:start;writing-mode:lr-tb;direction:ltr;text-anchor:start;fill:#000000;stroke-width:0.75"
           x="150.17337"
           y="236.98621"
           id="text225"><tspan
             sodipodi:role="line"
             id="tspan225"
             style="stroke-width:0.75"
             x="150.17337"
             y="236.98621">asthma</tspan></text>
        <text
           xml:space="preserve"
           style="font-size:20px;text-align:start;writing-mode:lr-tb;direction:ltr;text-anchor:start;fill:#000000;stroke-width:0.75"
           x="155.86101"
           y="265.42456"
           id="text226"><tspan
             sodipodi:role="line"
             id="tspan226"
             style="stroke-width:0.75"
             x="155.86101"
             y="265.42456">cancer</tspan></text>
        <text
           xml:space="preserve"
           style="font-size:20px;text-align:start;writing-mode:lr-tb;direction:ltr;text-anchor:start;fill:#000000;stroke-width:0.75"
           x="66.754204"
           y="331.78067"
           id="text228"><tspan
             sodipodi:role="line"
             id="tspan228"
             style="stroke-width:0.75"
             x="66.754204"
             y="331.78067">kidney_disease</tspan></text>
      </g>
      <g
         id="patch_13"
         transform="translate(81.125195,3.7917795)">
        <path
           d="M 177.19,350.44 H 565.2"
           style="fill:none;stroke:#000000;stroke-width:0.8;stroke-linecap:square;stroke-linejoin:miter"
           id="path218" />
      </g>
    </g>
    <text
       xml:space="preserve"
       style="font-size:20px;text-align:start;writing-mode:lr-tb;direction:ltr;text-anchor:start;fill:#000000;stroke-width:0.75"
       x="3.7917867"
       y="297.65466"
       id="text227"><tspan
         sodipodi:role="line"
         id="tspan227"
         style="stroke-width:0.75"
         x="3.7917867"
         y="297.65466">coronary_artery_disease</tspan></text>
  </g>
  <defs
     id="defs218">
    <clipPath
       id="p2efdc567fe">
      <rect
         x="177.19"
         y="10.8"
         width="388.01001"
         height="339.64001"
         id="rect218" />
    </clipPath>
  </defs>
</svg>
