<?xml version="1.0" encoding="utf-8" standalone="no"?>
<!DOCTYPE svg PUBLIC "-//W3C//DTD SVG 1.1//EN"
  "http://www.w3.org/Graphics/SVG/1.1/DTD/svg11.dtd">
<svg xmlns:xlink="http://www.w3.org/1999/xlink" width="576pt" height="684pt" viewBox="0 0 576 684" xmlns="http://www.w3.org/2000/svg" version="1.1">
 <metadata>
  <rdf:RDF xmlns:dc="http://purl.org/dc/elements/1.1/" xmlns:cc="http://creativecommons.org/ns#" xmlns:rdf="http://www.w3.org/1999/02/22-rdf-syntax-ns#">
   <cc:Work>
    <dc:type rdf:resource="http://purl.org/dc/dcmitype/StillImage"/>
    <dc:date>2024-09-27T19:45:47.184243</dc:date>
    <dc:format>image/svg+xml</dc:format>
    <dc:creator>
     <cc:Agent>
      <dc:title>Matplotlib v3.7.1, https://matplotlib.org/</dc:title>
     </cc:Agent>
    </dc:creator>
   </cc:Work>
  </rdf:RDF>
 </metadata>
 <defs>
  <style type="text/css">*{stroke-linejoin: round; stroke-linecap: butt}</style>
 </defs>
 <g id="figure_1">
  <g id="patch_1">
   <path d="M 0 684 
L 576 684 
L 576 0 
L 0 0 
z
" style="fill: #ffffff"/>
  </g>
  <g id="axes_1">
   <g id="patch_2">
    <path d="M 355.93 638.44 
L 563.074544 638.44 
L 563.074544 10.8 
L 355.93 10.8 
z
" style="fill: #ffffff"/>
   </g>
   <g id="line2d_1">
    <path d="M 355.93 638.44 
L 355.93 10.8 
" clip-path="url(#p60494ab249)" style="fill: none; stroke: #999999; stroke-width: 1.5; stroke-linecap: square"/>
   </g>
   <g id="patch_3">
    <path d="M 355.93 619.013048 
L 450.580039 619.013048 
L 450.580039 598.091714 
L 355.93 598.091714 
z
" clip-path="url(#p60494ab249)" style="fill: #008bfb"/>
   </g>
   <g id="patch_4">
    <path d="M 355.93 589.125429 
L 451.173727 589.125429 
L 451.173727 568.204095 
L 355.93 568.204095 
z
" clip-path="url(#p60494ab249)" style="fill: #008bfb"/>
   </g>
   <g id="patch_5">
    <path d="M 355.93 559.23781 
L 453.412744 559.23781 
L 453.412744 538.316476 
L 355.93 538.316476 
z
" clip-path="url(#p60494ab249)" style="fill: #008bfb"/>
   </g>
   <g id="patch_6">
    <path d="M 355.93 529.35019 
L 453.707228 529.35019 
L 453.707228 508.428857 
L 355.93 508.428857 
z
" clip-path="url(#p60494ab249)" style="fill: #008bfb"/>
   </g>
   <g id="patch_7">
    <path d="M 355.93 499.462571 
L 454.672981 499.462571 
L 454.672981 478.541238 
L 355.93 478.541238 
z
" clip-path="url(#p60494ab249)" style="fill: #008bfb"/>
   </g>
   <g id="patch_8">
    <path d="M 355.93 469.574952 
L 458.797653 469.574952 
L 458.797653 448.653619 
L 355.93 448.653619 
z
" clip-path="url(#p60494ab249)" style="fill: #008bfb"/>
   </g>
   <g id="patch_9">
    <path d="M 355.93 439.687333 
L 463.059337 439.687333 
L 463.059337 418.766 
L 355.93 418.766 
z
" clip-path="url(#p60494ab249)" style="fill: #008bfb"/>
   </g>
   <g id="patch_10">
    <path d="M 355.93 409.799714 
L 463.363367 409.799714 
L 463.363367 388.878381 
L 355.93 388.878381 
z
" clip-path="url(#p60494ab249)" style="fill: #008bfb"/>
   </g>
   <g id="patch_11">
    <path d="M 355.93 379.912095 
L 464.84777 379.912095 
L 464.84777 358.990762 
L 355.93 358.990762 
z
" clip-path="url(#p60494ab249)" style="fill: #008bfb"/>
   </g>
   <g id="patch_12">
    <path d="M 355.93 350.024476 
L 467.755713 350.024476 
L 467.755713 329.103143 
L 355.93 329.103143 
z
" clip-path="url(#p60494ab249)" style="fill: #008bfb"/>
   </g>
   <g id="patch_13">
    <path d="M 355.93 320.136857 
L 467.891255 320.136857 
L 467.891255 299.215524 
L 355.93 299.215524 
z
" clip-path="url(#p60494ab249)" style="fill: #008bfb"/>
   </g>
   <g id="patch_14">
    <path d="M 355.93 290.249238 
L 472.028507 290.249238 
L 472.028507 269.327905 
L 355.93 269.327905 
z
" clip-path="url(#p60494ab249)" style="fill: #008bfb"/>
   </g>
   <g id="patch_15">
    <path d="M 355.93 260.361619 
L 489.540051 260.361619 
L 489.540051 239.440286 
L 355.93 239.440286 
z
" clip-path="url(#p60494ab249)" style="fill: #008bfb"/>
   </g>
   <g id="patch_16">
    <path d="M 355.93 230.474 
L 489.601197 230.474 
L 489.601197 209.552667 
L 355.93 209.552667 
z
" clip-path="url(#p60494ab249)" style="fill: #008bfb"/>
   </g>
   <g id="patch_17">
    <path d="M 355.93 200.586381 
L 491.709333 200.586381 
L 491.709333 179.665048 
L 355.93 179.665048 
z
" clip-path="url(#p60494ab249)" style="fill: #008bfb"/>
   </g>
   <g id="patch_18">
    <path d="M 355.93 170.698762 
L 493.674339 170.698762 
L 493.674339 149.777429 
L 355.93 149.777429 
z
" clip-path="url(#p60494ab249)" style="fill: #008bfb"/>
   </g>
   <g id="patch_19">
    <path d="M 355.93 140.811143 
L 499.386074 140.811143 
L 499.386074 119.88981 
L 355.93 119.88981 
z
" clip-path="url(#p60494ab249)" style="fill: #008bfb"/>
   </g>
   <g id="patch_20">
    <path d="M 355.93 110.923524 
L 529.900566 110.923524 
L 529.900566 90.00219 
L 355.93 90.00219 
z
" clip-path="url(#p60494ab249)" style="fill: #008bfb"/>
   </g>
   <g id="patch_21">
    <path d="M 355.93 81.035905 
L 530.290249 81.035905 
L 530.290249 60.114571 
L 355.93 60.114571 
z
" clip-path="url(#p60494ab249)" style="fill: #008bfb"/>
   </g>
   <g id="patch_22">
    <path d="M 355.93 51.148286 
L 553.210518 51.148286 
L 553.210518 30.226952 
L 355.93 30.226952 
z
" clip-path="url(#p60494ab249)" style="fill: #008bfb"/>
   </g>
   <g id="matplotlib.axis_1">
    <g id="xtick_1">
     <g id="line2d_2">
      <defs>
       <path id="m988973e1ee" d="M 0 0 
L 0 3.5 
" style="stroke: #333333; stroke-width: 0.8"/>
      </defs>
      <g>
       <use xlink:href="#m988973e1ee" x="355.93" y="638.44" style="fill: #333333; stroke: #333333; stroke-width: 0.8"/>
      </g>
     </g>
     <g id="text_1">
      <!-- 0.000 -->
      <g style="fill: #333333" transform="translate(340.184531 653.798281) scale(0.11 -0.11)">
       <defs>
        <path id="DejaVuSans-30" d="M 2034 4250 
Q 1547 4250 1301 3770 
Q 1056 3291 1056 2328 
Q 1056 1369 1301 889 
Q 1547 409 2034 409 
Q 2525 409 2770 889 
Q 3016 1369 3016 2328 
Q 3016 3291 2770 3770 
Q 2525 4250 2034 4250 
z
M 2034 4750 
Q 2819 4750 3233 4129 
Q 3647 3509 3647 2328 
Q 3647 1150 3233 529 
Q 2819 -91 2034 -91 
Q 1250 -91 836 529 
Q 422 1150 422 2328 
Q 422 3509 836 4129 
Q 1250 4750 2034 4750 
z
" transform="scale(0.015625)"/>
        <path id="DejaVuSans-2e" d="M 684 794 
L 1344 794 
L 1344 0 
L 684 0 
L 684 794 
z
" transform="scale(0.015625)"/>
       </defs>
       <use xlink:href="#DejaVuSans-30"/>
       <use xlink:href="#DejaVuSans-2e" x="63.623047"/>
       <use xlink:href="#DejaVuSans-30" x="95.410156"/>
       <use xlink:href="#DejaVuSans-30" x="159.033203"/>
       <use xlink:href="#DejaVuSans-30" x="222.65625"/>
      </g>
     </g>
    </g>
    <g id="xtick_2">
     <g id="line2d_3">
      <g>
       <use xlink:href="#m988973e1ee" x="413.325698" y="638.44" style="fill: #333333; stroke: #333333; stroke-width: 0.8"/>
      </g>
     </g>
     <g id="text_2">
      <!-- 0.002 -->
      <g style="fill: #333333" transform="translate(397.580229 653.798281) scale(0.11 -0.11)">
       <defs>
        <path id="DejaVuSans-32" d="M 1228 531 
L 3431 531 
L 3431 0 
L 469 0 
L 469 531 
Q 828 903 1448 1529 
Q 2069 2156 2228 2338 
Q 2531 2678 2651 2914 
Q 2772 3150 2772 3378 
Q 2772 3750 2511 3984 
Q 2250 4219 1831 4219 
Q 1534 4219 1204 4116 
Q 875 4013 500 3803 
L 500 4441 
Q 881 4594 1212 4672 
Q 1544 4750 1819 4750 
Q 2544 4750 2975 4387 
Q 3406 4025 3406 3419 
Q 3406 3131 3298 2873 
Q 3191 2616 2906 2266 
Q 2828 2175 2409 1742 
Q 1991 1309 1228 531 
z
" transform="scale(0.015625)"/>
       </defs>
       <use xlink:href="#DejaVuSans-30"/>
       <use xlink:href="#DejaVuSans-2e" x="63.623047"/>
       <use xlink:href="#DejaVuSans-30" x="95.410156"/>
       <use xlink:href="#DejaVuSans-30" x="159.033203"/>
       <use xlink:href="#DejaVuSans-32" x="222.65625"/>
      </g>
     </g>
    </g>
    <g id="xtick_3">
     <g id="line2d_4">
      <g>
       <use xlink:href="#m988973e1ee" x="470.721396" y="638.44" style="fill: #333333; stroke: #333333; stroke-width: 0.8"/>
      </g>
     </g>
     <g id="text_3">
      <!-- 0.004 -->
      <g style="fill: #333333" transform="translate(454.975928 653.798281) scale(0.11 -0.11)">
       <defs>
        <path id="DejaVuSans-34" d="M 2419 4116 
L 825 1625 
L 2419 1625 
L 2419 4116 
z
M 2253 4666 
L 3047 4666 
L 3047 1625 
L 3713 1625 
L 3713 1100 
L 3047 1100 
L 3047 0 
L 2419 0 
L 2419 1100 
L 313 1100 
L 313 1709 
L 2253 4666 
z
" transform="scale(0.015625)"/>
       </defs>
       <use xlink:href="#DejaVuSans-30"/>
       <use xlink:href="#DejaVuSans-2e" x="63.623047"/>
       <use xlink:href="#DejaVuSans-30" x="95.410156"/>
       <use xlink:href="#DejaVuSans-30" x="159.033203"/>
       <use xlink:href="#DejaVuSans-34" x="222.65625"/>
      </g>
     </g>
    </g>
    <g id="xtick_4">
     <g id="line2d_5">
      <g>
       <use xlink:href="#m988973e1ee" x="528.117095" y="638.44" style="fill: #333333; stroke: #333333; stroke-width: 0.8"/>
      </g>
     </g>
     <g id="text_4">
      <!-- 0.006 -->
      <g style="fill: #333333" transform="translate(512.371626 653.798281) scale(0.11 -0.11)">
       <defs>
        <path id="DejaVuSans-36" d="M 2113 2584 
Q 1688 2584 1439 2293 
Q 1191 2003 1191 1497 
Q 1191 994 1439 701 
Q 1688 409 2113 409 
Q 2538 409 2786 701 
Q 3034 994 3034 1497 
Q 3034 2003 2786 2293 
Q 2538 2584 2113 2584 
z
M 3366 4563 
L 3366 3988 
Q 3128 4100 2886 4159 
Q 2644 4219 2406 4219 
Q 1781 4219 1451 3797 
Q 1122 3375 1075 2522 
Q 1259 2794 1537 2939 
Q 1816 3084 2150 3084 
Q 2853 3084 3261 2657 
Q 3669 2231 3669 1497 
Q 3669 778 3244 343 
Q 2819 -91 2113 -91 
Q 1303 -91 875 529 
Q 447 1150 447 2328 
Q 447 3434 972 4092 
Q 1497 4750 2381 4750 
Q 2619 4750 2861 4703 
Q 3103 4656 3366 4563 
z
" transform="scale(0.015625)"/>
       </defs>
       <use xlink:href="#DejaVuSans-30"/>
       <use xlink:href="#DejaVuSans-2e" x="63.623047"/>
       <use xlink:href="#DejaVuSans-30" x="95.410156"/>
       <use xlink:href="#DejaVuSans-30" x="159.033203"/>
       <use xlink:href="#DejaVuSans-36" x="222.65625"/>
      </g>
     </g>
    </g>
    <g id="text_5">
     <!-- mean(|SHAP value|) (average impact on model output magnitude) -->
     <g transform="translate(243.032975 670.020781) scale(0.13 -0.13)">
      <defs>
       <path id="DejaVuSans-6d" d="M 3328 2828 
Q 3544 3216 3844 3400 
Q 4144 3584 4550 3584 
Q 5097 3584 5394 3201 
Q 5691 2819 5691 2113 
L 5691 0 
L 5113 0 
L 5113 2094 
Q 5113 2597 4934 2840 
Q 4756 3084 4391 3084 
Q 3944 3084 3684 2787 
Q 3425 2491 3425 1978 
L 3425 0 
L 2847 0 
L 2847 2094 
Q 2847 2600 2669 2842 
Q 2491 3084 2119 3084 
Q 1678 3084 1418 2786 
Q 1159 2488 1159 1978 
L 1159 0 
L 581 0 
L 581 3500 
L 1159 3500 
L 1159 2956 
Q 1356 3278 1631 3431 
Q 1906 3584 2284 3584 
Q 2666 3584 2933 3390 
Q 3200 3197 3328 2828 
z
" transform="scale(0.015625)"/>
       <path id="DejaVuSans-65" d="M 3597 1894 
L 3597 1613 
L 953 1613 
Q 991 1019 1311 708 
Q 1631 397 2203 397 
Q 2534 397 2845 478 
Q 3156 559 3463 722 
L 3463 178 
Q 3153 47 2828 -22 
Q 2503 -91 2169 -91 
Q 1331 -91 842 396 
Q 353 884 353 1716 
Q 353 2575 817 3079 
Q 1281 3584 2069 3584 
Q 2775 3584 3186 3129 
Q 3597 2675 3597 1894 
z
M 3022 2063 
Q 3016 2534 2758 2815 
Q 2500 3097 2075 3097 
Q 1594 3097 1305 2825 
Q 1016 2553 972 2059 
L 3022 2063 
z
" transform="scale(0.015625)"/>
       <path id="DejaVuSans-61" d="M 2194 1759 
Q 1497 1759 1228 1600 
Q 959 1441 959 1056 
Q 959 750 1161 570 
Q 1363 391 1709 391 
Q 2188 391 2477 730 
Q 2766 1069 2766 1631 
L 2766 1759 
L 2194 1759 
z
M 3341 1997 
L 3341 0 
L 2766 0 
L 2766 531 
Q 2569 213 2275 61 
Q 1981 -91 1556 -91 
Q 1019 -91 701 211 
Q 384 513 384 1019 
Q 384 1609 779 1909 
Q 1175 2209 1959 2209 
L 2766 2209 
L 2766 2266 
Q 2766 2663 2505 2880 
Q 2244 3097 1772 3097 
Q 1472 3097 1187 3025 
Q 903 2953 641 2809 
L 641 3341 
Q 956 3463 1253 3523 
Q 1550 3584 1831 3584 
Q 2591 3584 2966 3190 
Q 3341 2797 3341 1997 
z
" transform="scale(0.015625)"/>
       <path id="DejaVuSans-6e" d="M 3513 2113 
L 3513 0 
L 2938 0 
L 2938 2094 
Q 2938 2591 2744 2837 
Q 2550 3084 2163 3084 
Q 1697 3084 1428 2787 
Q 1159 2491 1159 1978 
L 1159 0 
L 581 0 
L 581 3500 
L 1159 3500 
L 1159 2956 
Q 1366 3272 1645 3428 
Q 1925 3584 2291 3584 
Q 2894 3584 3203 3211 
Q 3513 2838 3513 2113 
z
" transform="scale(0.015625)"/>
       <path id="DejaVuSans-28" d="M 1984 4856 
Q 1566 4138 1362 3434 
Q 1159 2731 1159 2009 
Q 1159 1288 1364 580 
Q 1569 -128 1984 -844 
L 1484 -844 
Q 1016 -109 783 600 
Q 550 1309 550 2009 
Q 550 2706 781 3412 
Q 1013 4119 1484 4856 
L 1984 4856 
z
" transform="scale(0.015625)"/>
       <path id="DejaVuSans-7c" d="M 1344 4891 
L 1344 -1509 
L 813 -1509 
L 813 4891 
L 1344 4891 
z
" transform="scale(0.015625)"/>
       <path id="DejaVuSans-53" d="M 3425 4513 
L 3425 3897 
Q 3066 4069 2747 4153 
Q 2428 4238 2131 4238 
Q 1616 4238 1336 4038 
Q 1056 3838 1056 3469 
Q 1056 3159 1242 3001 
Q 1428 2844 1947 2747 
L 2328 2669 
Q 3034 2534 3370 2195 
Q 3706 1856 3706 1288 
Q 3706 609 3251 259 
Q 2797 -91 1919 -91 
Q 1588 -91 1214 -16 
Q 841 59 441 206 
L 441 856 
Q 825 641 1194 531 
Q 1563 422 1919 422 
Q 2459 422 2753 634 
Q 3047 847 3047 1241 
Q 3047 1584 2836 1778 
Q 2625 1972 2144 2069 
L 1759 2144 
Q 1053 2284 737 2584 
Q 422 2884 422 3419 
Q 422 4038 858 4394 
Q 1294 4750 2059 4750 
Q 2388 4750 2728 4690 
Q 3069 4631 3425 4513 
z
" transform="scale(0.015625)"/>
       <path id="DejaVuSans-48" d="M 628 4666 
L 1259 4666 
L 1259 2753 
L 3553 2753 
L 3553 4666 
L 4184 4666 
L 4184 0 
L 3553 0 
L 3553 2222 
L 1259 2222 
L 1259 0 
L 628 0 
L 628 4666 
z
" transform="scale(0.015625)"/>
       <path id="DejaVuSans-41" d="M 2188 4044 
L 1331 1722 
L 3047 1722 
L 2188 4044 
z
M 1831 4666 
L 2547 4666 
L 4325 0 
L 3669 0 
L 3244 1197 
L 1141 1197 
L 716 0 
L 50 0 
L 1831 4666 
z
" transform="scale(0.015625)"/>
       <path id="DejaVuSans-50" d="M 1259 4147 
L 1259 2394 
L 2053 2394 
Q 2494 2394 2734 2622 
Q 2975 2850 2975 3272 
Q 2975 3691 2734 3919 
Q 2494 4147 2053 4147 
L 1259 4147 
z
M 628 4666 
L 2053 4666 
Q 2838 4666 3239 4311 
Q 3641 3956 3641 3272 
Q 3641 2581 3239 2228 
Q 2838 1875 2053 1875 
L 1259 1875 
L 1259 0 
L 628 0 
L 628 4666 
z
" transform="scale(0.015625)"/>
       <path id="DejaVuSans-20" transform="scale(0.015625)"/>
       <path id="DejaVuSans-76" d="M 191 3500 
L 800 3500 
L 1894 563 
L 2988 3500 
L 3597 3500 
L 2284 0 
L 1503 0 
L 191 3500 
z
" transform="scale(0.015625)"/>
       <path id="DejaVuSans-6c" d="M 603 4863 
L 1178 4863 
L 1178 0 
L 603 0 
L 603 4863 
z
" transform="scale(0.015625)"/>
       <path id="DejaVuSans-75" d="M 544 1381 
L 544 3500 
L 1119 3500 
L 1119 1403 
Q 1119 906 1312 657 
Q 1506 409 1894 409 
Q 2359 409 2629 706 
Q 2900 1003 2900 1516 
L 2900 3500 
L 3475 3500 
L 3475 0 
L 2900 0 
L 2900 538 
Q 2691 219 2414 64 
Q 2138 -91 1772 -91 
Q 1169 -91 856 284 
Q 544 659 544 1381 
z
M 1991 3584 
L 1991 3584 
z
" transform="scale(0.015625)"/>
       <path id="DejaVuSans-29" d="M 513 4856 
L 1013 4856 
Q 1481 4119 1714 3412 
Q 1947 2706 1947 2009 
Q 1947 1309 1714 600 
Q 1481 -109 1013 -844 
L 513 -844 
Q 928 -128 1133 580 
Q 1338 1288 1338 2009 
Q 1338 2731 1133 3434 
Q 928 4138 513 4856 
z
" transform="scale(0.015625)"/>
       <path id="DejaVuSans-72" d="M 2631 2963 
Q 2534 3019 2420 3045 
Q 2306 3072 2169 3072 
Q 1681 3072 1420 2755 
Q 1159 2438 1159 1844 
L 1159 0 
L 581 0 
L 581 3500 
L 1159 3500 
L 1159 2956 
Q 1341 3275 1631 3429 
Q 1922 3584 2338 3584 
Q 2397 3584 2469 3576 
Q 2541 3569 2628 3553 
L 2631 2963 
z
" transform="scale(0.015625)"/>
       <path id="DejaVuSans-67" d="M 2906 1791 
Q 2906 2416 2648 2759 
Q 2391 3103 1925 3103 
Q 1463 3103 1205 2759 
Q 947 2416 947 1791 
Q 947 1169 1205 825 
Q 1463 481 1925 481 
Q 2391 481 2648 825 
Q 2906 1169 2906 1791 
z
M 3481 434 
Q 3481 -459 3084 -895 
Q 2688 -1331 1869 -1331 
Q 1566 -1331 1297 -1286 
Q 1028 -1241 775 -1147 
L 775 -588 
Q 1028 -725 1275 -790 
Q 1522 -856 1778 -856 
Q 2344 -856 2625 -561 
Q 2906 -266 2906 331 
L 2906 616 
Q 2728 306 2450 153 
Q 2172 0 1784 0 
Q 1141 0 747 490 
Q 353 981 353 1791 
Q 353 2603 747 3093 
Q 1141 3584 1784 3584 
Q 2172 3584 2450 3431 
Q 2728 3278 2906 2969 
L 2906 3500 
L 3481 3500 
L 3481 434 
z
" transform="scale(0.015625)"/>
       <path id="DejaVuSans-69" d="M 603 3500 
L 1178 3500 
L 1178 0 
L 603 0 
L 603 3500 
z
M 603 4863 
L 1178 4863 
L 1178 4134 
L 603 4134 
L 603 4863 
z
" transform="scale(0.015625)"/>
       <path id="DejaVuSans-70" d="M 1159 525 
L 1159 -1331 
L 581 -1331 
L 581 3500 
L 1159 3500 
L 1159 2969 
Q 1341 3281 1617 3432 
Q 1894 3584 2278 3584 
Q 2916 3584 3314 3078 
Q 3713 2572 3713 1747 
Q 3713 922 3314 415 
Q 2916 -91 2278 -91 
Q 1894 -91 1617 61 
Q 1341 213 1159 525 
z
M 3116 1747 
Q 3116 2381 2855 2742 
Q 2594 3103 2138 3103 
Q 1681 3103 1420 2742 
Q 1159 2381 1159 1747 
Q 1159 1113 1420 752 
Q 1681 391 2138 391 
Q 2594 391 2855 752 
Q 3116 1113 3116 1747 
z
" transform="scale(0.015625)"/>
       <path id="DejaVuSans-63" d="M 3122 3366 
L 3122 2828 
Q 2878 2963 2633 3030 
Q 2388 3097 2138 3097 
Q 1578 3097 1268 2742 
Q 959 2388 959 1747 
Q 959 1106 1268 751 
Q 1578 397 2138 397 
Q 2388 397 2633 464 
Q 2878 531 3122 666 
L 3122 134 
Q 2881 22 2623 -34 
Q 2366 -91 2075 -91 
Q 1284 -91 818 406 
Q 353 903 353 1747 
Q 353 2603 823 3093 
Q 1294 3584 2113 3584 
Q 2378 3584 2631 3529 
Q 2884 3475 3122 3366 
z
" transform="scale(0.015625)"/>
       <path id="DejaVuSans-74" d="M 1172 4494 
L 1172 3500 
L 2356 3500 
L 2356 3053 
L 1172 3053 
L 1172 1153 
Q 1172 725 1289 603 
Q 1406 481 1766 481 
L 2356 481 
L 2356 0 
L 1766 0 
Q 1100 0 847 248 
Q 594 497 594 1153 
L 594 3053 
L 172 3053 
L 172 3500 
L 594 3500 
L 594 4494 
L 1172 4494 
z
" transform="scale(0.015625)"/>
       <path id="DejaVuSans-6f" d="M 1959 3097 
Q 1497 3097 1228 2736 
Q 959 2375 959 1747 
Q 959 1119 1226 758 
Q 1494 397 1959 397 
Q 2419 397 2687 759 
Q 2956 1122 2956 1747 
Q 2956 2369 2687 2733 
Q 2419 3097 1959 3097 
z
M 1959 3584 
Q 2709 3584 3137 3096 
Q 3566 2609 3566 1747 
Q 3566 888 3137 398 
Q 2709 -91 1959 -91 
Q 1206 -91 779 398 
Q 353 888 353 1747 
Q 353 2609 779 3096 
Q 1206 3584 1959 3584 
z
" transform="scale(0.015625)"/>
       <path id="DejaVuSans-64" d="M 2906 2969 
L 2906 4863 
L 3481 4863 
L 3481 0 
L 2906 0 
L 2906 525 
Q 2725 213 2448 61 
Q 2172 -91 1784 -91 
Q 1150 -91 751 415 
Q 353 922 353 1747 
Q 353 2572 751 3078 
Q 1150 3584 1784 3584 
Q 2172 3584 2448 3432 
Q 2725 3281 2906 2969 
z
M 947 1747 
Q 947 1113 1208 752 
Q 1469 391 1925 391 
Q 2381 391 2643 752 
Q 2906 1113 2906 1747 
Q 2906 2381 2643 2742 
Q 2381 3103 1925 3103 
Q 1469 3103 1208 2742 
Q 947 2381 947 1747 
z
" transform="scale(0.015625)"/>
      </defs>
      <use xlink:href="#DejaVuSans-6d"/>
      <use xlink:href="#DejaVuSans-65" x="97.412109"/>
      <use xlink:href="#DejaVuSans-61" x="158.935547"/>
      <use xlink:href="#DejaVuSans-6e" x="220.214844"/>
      <use xlink:href="#DejaVuSans-28" x="283.59375"/>
      <use xlink:href="#DejaVuSans-7c" x="322.607422"/>
      <use xlink:href="#DejaVuSans-53" x="356.298828"/>
      <use xlink:href="#DejaVuSans-48" x="419.775391"/>
      <use xlink:href="#DejaVuSans-41" x="494.970703"/>
      <use xlink:href="#DejaVuSans-50" x="563.378906"/>
      <use xlink:href="#DejaVuSans-20" x="623.681641"/>
      <use xlink:href="#DejaVuSans-76" x="655.46875"/>
      <use xlink:href="#DejaVuSans-61" x="714.648438"/>
      <use xlink:href="#DejaVuSans-6c" x="775.927734"/>
      <use xlink:href="#DejaVuSans-75" x="803.710938"/>
      <use xlink:href="#DejaVuSans-65" x="867.089844"/>
      <use xlink:href="#DejaVuSans-7c" x="928.613281"/>
      <use xlink:href="#DejaVuSans-29" x="962.304688"/>
      <use xlink:href="#DejaVuSans-20" x="1001.318359"/>
      <use xlink:href="#DejaVuSans-28" x="1033.105469"/>
      <use xlink:href="#DejaVuSans-61" x="1072.119141"/>
      <use xlink:href="#DejaVuSans-76" x="1133.398438"/>
      <use xlink:href="#DejaVuSans-65" x="1192.578125"/>
      <use xlink:href="#DejaVuSans-72" x="1254.101562"/>
      <use xlink:href="#DejaVuSans-61" x="1295.214844"/>
      <use xlink:href="#DejaVuSans-67" x="1356.494141"/>
      <use xlink:href="#DejaVuSans-65" x="1419.970703"/>
      <use xlink:href="#DejaVuSans-20" x="1481.494141"/>
      <use xlink:href="#DejaVuSans-69" x="1513.28125"/>
      <use xlink:href="#DejaVuSans-6d" x="1541.064453"/>
      <use xlink:href="#DejaVuSans-70" x="1638.476562"/>
      <use xlink:href="#DejaVuSans-61" x="1701.953125"/>
      <use xlink:href="#DejaVuSans-63" x="1763.232422"/>
      <use xlink:href="#DejaVuSans-74" x="1818.212891"/>
      <use xlink:href="#DejaVuSans-20" x="1857.421875"/>
      <use xlink:href="#DejaVuSans-6f" x="1889.208984"/>
      <use xlink:href="#DejaVuSans-6e" x="1950.390625"/>
      <use xlink:href="#DejaVuSans-20" x="2013.769531"/>
      <use xlink:href="#DejaVuSans-6d" x="2045.556641"/>
      <use xlink:href="#DejaVuSans-6f" x="2142.96875"/>
      <use xlink:href="#DejaVuSans-64" x="2204.150391"/>
      <use xlink:href="#DejaVuSans-65" x="2267.626953"/>
      <use xlink:href="#DejaVuSans-6c" x="2329.150391"/>
      <use xlink:href="#DejaVuSans-20" x="2356.933594"/>
      <use xlink:href="#DejaVuSans-6f" x="2388.720703"/>
      <use xlink:href="#DejaVuSans-75" x="2449.902344"/>
      <use xlink:href="#DejaVuSans-74" x="2513.28125"/>
      <use xlink:href="#DejaVuSans-70" x="2552.490234"/>
      <use xlink:href="#DejaVuSans-75" x="2615.966797"/>
      <use xlink:href="#DejaVuSans-74" x="2679.345703"/>
      <use xlink:href="#DejaVuSans-20" x="2718.554688"/>
      <use xlink:href="#DejaVuSans-6d" x="2750.341797"/>
      <use xlink:href="#DejaVuSans-61" x="2847.753906"/>
      <use xlink:href="#DejaVuSans-67" x="2909.033203"/>
      <use xlink:href="#DejaVuSans-6e" x="2972.509766"/>
      <use xlink:href="#DejaVuSans-69" x="3035.888672"/>
      <use xlink:href="#DejaVuSans-74" x="3063.671875"/>
      <use xlink:href="#DejaVuSans-75" x="3102.880859"/>
      <use xlink:href="#DejaVuSans-64" x="3166.259766"/>
      <use xlink:href="#DejaVuSans-65" x="3229.736328"/>
      <use xlink:href="#DejaVuSans-29" x="3291.259766"/>
     </g>
    </g>
   </g>
   <g id="matplotlib.axis_2">
    <g id="ytick_1">
     <g id="text_6">
      <!-- 2-linoleoyl-GPC (18:2)* -->
      <g style="fill: #333333" transform="translate(199.562031 613.491365) scale(0.13 -0.13)">
       <defs>
        <path id="DejaVuSans-2d" d="M 313 2009 
L 1997 2009 
L 1997 1497 
L 313 1497 
L 313 2009 
z
" transform="scale(0.015625)"/>
        <path id="DejaVuSans-79" d="M 2059 -325 
Q 1816 -950 1584 -1140 
Q 1353 -1331 966 -1331 
L 506 -1331 
L 506 -850 
L 844 -850 
Q 1081 -850 1212 -737 
Q 1344 -625 1503 -206 
L 1606 56 
L 191 3500 
L 800 3500 
L 1894 763 
L 2988 3500 
L 3597 3500 
L 2059 -325 
z
" transform="scale(0.015625)"/>
        <path id="DejaVuSans-47" d="M 3809 666 
L 3809 1919 
L 2778 1919 
L 2778 2438 
L 4434 2438 
L 4434 434 
Q 4069 175 3628 42 
Q 3188 -91 2688 -91 
Q 1594 -91 976 548 
Q 359 1188 359 2328 
Q 359 3472 976 4111 
Q 1594 4750 2688 4750 
Q 3144 4750 3555 4637 
Q 3966 4525 4313 4306 
L 4313 3634 
Q 3963 3931 3569 4081 
Q 3175 4231 2741 4231 
Q 1884 4231 1454 3753 
Q 1025 3275 1025 2328 
Q 1025 1384 1454 906 
Q 1884 428 2741 428 
Q 3075 428 3337 486 
Q 3600 544 3809 666 
z
" transform="scale(0.015625)"/>
        <path id="DejaVuSans-43" d="M 4122 4306 
L 4122 3641 
Q 3803 3938 3442 4084 
Q 3081 4231 2675 4231 
Q 1875 4231 1450 3742 
Q 1025 3253 1025 2328 
Q 1025 1406 1450 917 
Q 1875 428 2675 428 
Q 3081 428 3442 575 
Q 3803 722 4122 1019 
L 4122 359 
Q 3791 134 3420 21 
Q 3050 -91 2638 -91 
Q 1578 -91 968 557 
Q 359 1206 359 2328 
Q 359 3453 968 4101 
Q 1578 4750 2638 4750 
Q 3056 4750 3426 4639 
Q 3797 4528 4122 4306 
z
" transform="scale(0.015625)"/>
        <path id="DejaVuSans-31" d="M 794 531 
L 1825 531 
L 1825 4091 
L 703 3866 
L 703 4441 
L 1819 4666 
L 2450 4666 
L 2450 531 
L 3481 531 
L 3481 0 
L 794 0 
L 794 531 
z
" transform="scale(0.015625)"/>
        <path id="DejaVuSans-38" d="M 2034 2216 
Q 1584 2216 1326 1975 
Q 1069 1734 1069 1313 
Q 1069 891 1326 650 
Q 1584 409 2034 409 
Q 2484 409 2743 651 
Q 3003 894 3003 1313 
Q 3003 1734 2745 1975 
Q 2488 2216 2034 2216 
z
M 1403 2484 
Q 997 2584 770 2862 
Q 544 3141 544 3541 
Q 544 4100 942 4425 
Q 1341 4750 2034 4750 
Q 2731 4750 3128 4425 
Q 3525 4100 3525 3541 
Q 3525 3141 3298 2862 
Q 3072 2584 2669 2484 
Q 3125 2378 3379 2068 
Q 3634 1759 3634 1313 
Q 3634 634 3220 271 
Q 2806 -91 2034 -91 
Q 1263 -91 848 271 
Q 434 634 434 1313 
Q 434 1759 690 2068 
Q 947 2378 1403 2484 
z
M 1172 3481 
Q 1172 3119 1398 2916 
Q 1625 2713 2034 2713 
Q 2441 2713 2670 2916 
Q 2900 3119 2900 3481 
Q 2900 3844 2670 4047 
Q 2441 4250 2034 4250 
Q 1625 4250 1398 4047 
Q 1172 3844 1172 3481 
z
" transform="scale(0.015625)"/>
        <path id="DejaVuSans-3a" d="M 750 794 
L 1409 794 
L 1409 0 
L 750 0 
L 750 794 
z
M 750 3309 
L 1409 3309 
L 1409 2516 
L 750 2516 
L 750 3309 
z
" transform="scale(0.015625)"/>
        <path id="DejaVuSans-2a" d="M 3009 3897 
L 1888 3291 
L 3009 2681 
L 2828 2375 
L 1778 3009 
L 1778 1831 
L 1422 1831 
L 1422 3009 
L 372 2375 
L 191 2681 
L 1313 3291 
L 191 3897 
L 372 4206 
L 1422 3572 
L 1422 4750 
L 1778 4750 
L 1778 3572 
L 2828 4206 
L 3009 3897 
z
" transform="scale(0.015625)"/>
       </defs>
       <use xlink:href="#DejaVuSans-32"/>
       <use xlink:href="#DejaVuSans-2d" x="63.623047"/>
       <use xlink:href="#DejaVuSans-6c" x="99.707031"/>
       <use xlink:href="#DejaVuSans-69" x="127.490234"/>
       <use xlink:href="#DejaVuSans-6e" x="155.273438"/>
       <use xlink:href="#DejaVuSans-6f" x="218.652344"/>
       <use xlink:href="#DejaVuSans-6c" x="279.833984"/>
       <use xlink:href="#DejaVuSans-65" x="307.617188"/>
       <use xlink:href="#DejaVuSans-6f" x="369.140625"/>
       <use xlink:href="#DejaVuSans-79" x="430.322266"/>
       <use xlink:href="#DejaVuSans-6c" x="489.501953"/>
       <use xlink:href="#DejaVuSans-2d" x="517.285156"/>
       <use xlink:href="#DejaVuSans-47" x="556.994141"/>
       <use xlink:href="#DejaVuSans-50" x="634.484375"/>
       <use xlink:href="#DejaVuSans-43" x="694.787109"/>
       <use xlink:href="#DejaVuSans-20" x="764.611328"/>
       <use xlink:href="#DejaVuSans-28" x="796.398438"/>
       <use xlink:href="#DejaVuSans-31" x="835.412109"/>
       <use xlink:href="#DejaVuSans-38" x="899.035156"/>
       <use xlink:href="#DejaVuSans-3a" x="962.658203"/>
       <use xlink:href="#DejaVuSans-32" x="996.349609"/>
       <use xlink:href="#DejaVuSans-29" x="1059.972656"/>
       <use xlink:href="#DejaVuSans-2a" x="1098.986328"/>
      </g>
     </g>
    </g>
    <g id="ytick_2">
     <g id="text_7">
      <!-- eicosanedioate (C20-DC) -->
      <g style="fill: #333333" transform="translate(186.685938 583.603746) scale(0.13 -0.13)">
       <defs>
        <path id="DejaVuSans-73" d="M 2834 3397 
L 2834 2853 
Q 2591 2978 2328 3040 
Q 2066 3103 1784 3103 
Q 1356 3103 1142 2972 
Q 928 2841 928 2578 
Q 928 2378 1081 2264 
Q 1234 2150 1697 2047 
L 1894 2003 
Q 2506 1872 2764 1633 
Q 3022 1394 3022 966 
Q 3022 478 2636 193 
Q 2250 -91 1575 -91 
Q 1294 -91 989 -36 
Q 684 19 347 128 
L 347 722 
Q 666 556 975 473 
Q 1284 391 1588 391 
Q 1994 391 2212 530 
Q 2431 669 2431 922 
Q 2431 1156 2273 1281 
Q 2116 1406 1581 1522 
L 1381 1569 
Q 847 1681 609 1914 
Q 372 2147 372 2553 
Q 372 3047 722 3315 
Q 1072 3584 1716 3584 
Q 2034 3584 2315 3537 
Q 2597 3491 2834 3397 
z
" transform="scale(0.015625)"/>
        <path id="DejaVuSans-44" d="M 1259 4147 
L 1259 519 
L 2022 519 
Q 2988 519 3436 956 
Q 3884 1394 3884 2338 
Q 3884 3275 3436 3711 
Q 2988 4147 2022 4147 
L 1259 4147 
z
M 628 4666 
L 1925 4666 
Q 3281 4666 3915 4102 
Q 4550 3538 4550 2338 
Q 4550 1131 3912 565 
Q 3275 0 1925 0 
L 628 0 
L 628 4666 
z
" transform="scale(0.015625)"/>
       </defs>
       <use xlink:href="#DejaVuSans-65"/>
       <use xlink:href="#DejaVuSans-69" x="61.523438"/>
       <use xlink:href="#DejaVuSans-63" x="89.306641"/>
       <use xlink:href="#DejaVuSans-6f" x="144.287109"/>
       <use xlink:href="#DejaVuSans-73" x="205.46875"/>
       <use xlink:href="#DejaVuSans-61" x="257.568359"/>
       <use xlink:href="#DejaVuSans-6e" x="318.847656"/>
       <use xlink:href="#DejaVuSans-65" x="382.226562"/>
       <use xlink:href="#DejaVuSans-64" x="443.75"/>
       <use xlink:href="#DejaVuSans-69" x="507.226562"/>
       <use xlink:href="#DejaVuSans-6f" x="535.009766"/>
       <use xlink:href="#DejaVuSans-61" x="596.191406"/>
       <use xlink:href="#DejaVuSans-74" x="657.470703"/>
       <use xlink:href="#DejaVuSans-65" x="696.679688"/>
       <use xlink:href="#DejaVuSans-20" x="758.203125"/>
       <use xlink:href="#DejaVuSans-28" x="789.990234"/>
       <use xlink:href="#DejaVuSans-43" x="829.003906"/>
       <use xlink:href="#DejaVuSans-32" x="898.828125"/>
       <use xlink:href="#DejaVuSans-30" x="962.451172"/>
       <use xlink:href="#DejaVuSans-2d" x="1026.074219"/>
       <use xlink:href="#DejaVuSans-44" x="1062.158203"/>
       <use xlink:href="#DejaVuSans-43" x="1139.160156"/>
       <use xlink:href="#DejaVuSans-29" x="1208.984375"/>
      </g>
     </g>
    </g>
    <g id="ytick_3">
     <g id="text_8">
      <!-- X - 12100 -->
      <g style="fill: #333333" transform="translate(285.715469 553.716127) scale(0.13 -0.13)">
       <defs>
        <path id="DejaVuSans-58" d="M 403 4666 
L 1081 4666 
L 2241 2931 
L 3406 4666 
L 4084 4666 
L 2584 2425 
L 4184 0 
L 3506 0 
L 2194 1984 
L 872 0 
L 191 0 
L 1856 2491 
L 403 4666 
z
" transform="scale(0.015625)"/>
       </defs>
       <use xlink:href="#DejaVuSans-58"/>
       <use xlink:href="#DejaVuSans-20" x="68.505859"/>
       <use xlink:href="#DejaVuSans-2d" x="100.292969"/>
       <use xlink:href="#DejaVuSans-20" x="136.376953"/>
       <use xlink:href="#DejaVuSans-31" x="168.164062"/>
       <use xlink:href="#DejaVuSans-32" x="231.787109"/>
       <use xlink:href="#DejaVuSans-31" x="295.410156"/>
       <use xlink:href="#DejaVuSans-30" x="359.033203"/>
       <use xlink:href="#DejaVuSans-30" x="422.65625"/>
      </g>
     </g>
    </g>
    <g id="ytick_4">
     <g id="text_9">
      <!-- 2-myristoyl-GPC (14:0)* -->
      <g style="fill: #333333" transform="translate(193.407344 523.828508) scale(0.13 -0.13)">
       <use xlink:href="#DejaVuSans-32"/>
       <use xlink:href="#DejaVuSans-2d" x="63.623047"/>
       <use xlink:href="#DejaVuSans-6d" x="99.707031"/>
       <use xlink:href="#DejaVuSans-79" x="197.119141"/>
       <use xlink:href="#DejaVuSans-72" x="256.298828"/>
       <use xlink:href="#DejaVuSans-69" x="297.412109"/>
       <use xlink:href="#DejaVuSans-73" x="325.195312"/>
       <use xlink:href="#DejaVuSans-74" x="377.294922"/>
       <use xlink:href="#DejaVuSans-6f" x="416.503906"/>
       <use xlink:href="#DejaVuSans-79" x="477.685547"/>
       <use xlink:href="#DejaVuSans-6c" x="536.865234"/>
       <use xlink:href="#DejaVuSans-2d" x="564.648438"/>
       <use xlink:href="#DejaVuSans-47" x="604.357422"/>
       <use xlink:href="#DejaVuSans-50" x="681.847656"/>
       <use xlink:href="#DejaVuSans-43" x="742.150391"/>
       <use xlink:href="#DejaVuSans-20" x="811.974609"/>
       <use xlink:href="#DejaVuSans-28" x="843.761719"/>
       <use xlink:href="#DejaVuSans-31" x="882.775391"/>
       <use xlink:href="#DejaVuSans-34" x="946.398438"/>
       <use xlink:href="#DejaVuSans-3a" x="1010.021484"/>
       <use xlink:href="#DejaVuSans-30" x="1043.712891"/>
       <use xlink:href="#DejaVuSans-29" x="1107.335938"/>
       <use xlink:href="#DejaVuSans-2a" x="1146.349609"/>
      </g>
     </g>
    </g>
    <g id="ytick_5">
     <g id="text_10">
      <!-- X - 21258 -->
      <g style="fill: #333333" transform="translate(285.715469 493.940889) scale(0.13 -0.13)">
       <defs>
        <path id="DejaVuSans-35" d="M 691 4666 
L 3169 4666 
L 3169 4134 
L 1269 4134 
L 1269 2991 
Q 1406 3038 1543 3061 
Q 1681 3084 1819 3084 
Q 2600 3084 3056 2656 
Q 3513 2228 3513 1497 
Q 3513 744 3044 326 
Q 2575 -91 1722 -91 
Q 1428 -91 1123 -41 
Q 819 9 494 109 
L 494 744 
Q 775 591 1075 516 
Q 1375 441 1709 441 
Q 2250 441 2565 725 
Q 2881 1009 2881 1497 
Q 2881 1984 2565 2268 
Q 2250 2553 1709 2553 
Q 1456 2553 1204 2497 
Q 953 2441 691 2322 
L 691 4666 
z
" transform="scale(0.015625)"/>
       </defs>
       <use xlink:href="#DejaVuSans-58"/>
       <use xlink:href="#DejaVuSans-20" x="68.505859"/>
       <use xlink:href="#DejaVuSans-2d" x="100.292969"/>
       <use xlink:href="#DejaVuSans-20" x="136.376953"/>
       <use xlink:href="#DejaVuSans-32" x="168.164062"/>
       <use xlink:href="#DejaVuSans-31" x="231.787109"/>
       <use xlink:href="#DejaVuSans-32" x="295.410156"/>
       <use xlink:href="#DejaVuSans-35" x="359.033203"/>
       <use xlink:href="#DejaVuSans-38" x="422.65625"/>
      </g>
     </g>
    </g>
    <g id="ytick_6">
     <g id="text_11">
      <!-- sulfate of piperine metabolite C16H19NO3 (2)* -->
      <g style="fill: #333333" transform="translate(42.834844 464.05327) scale(0.13 -0.13)">
       <defs>
        <path id="DejaVuSans-66" d="M 2375 4863 
L 2375 4384 
L 1825 4384 
Q 1516 4384 1395 4259 
Q 1275 4134 1275 3809 
L 1275 3500 
L 2222 3500 
L 2222 3053 
L 1275 3053 
L 1275 0 
L 697 0 
L 697 3053 
L 147 3053 
L 147 3500 
L 697 3500 
L 697 3744 
Q 697 4328 969 4595 
Q 1241 4863 1831 4863 
L 2375 4863 
z
" transform="scale(0.015625)"/>
        <path id="DejaVuSans-62" d="M 3116 1747 
Q 3116 2381 2855 2742 
Q 2594 3103 2138 3103 
Q 1681 3103 1420 2742 
Q 1159 2381 1159 1747 
Q 1159 1113 1420 752 
Q 1681 391 2138 391 
Q 2594 391 2855 752 
Q 3116 1113 3116 1747 
z
M 1159 2969 
Q 1341 3281 1617 3432 
Q 1894 3584 2278 3584 
Q 2916 3584 3314 3078 
Q 3713 2572 3713 1747 
Q 3713 922 3314 415 
Q 2916 -91 2278 -91 
Q 1894 -91 1617 61 
Q 1341 213 1159 525 
L 1159 0 
L 581 0 
L 581 4863 
L 1159 4863 
L 1159 2969 
z
" transform="scale(0.015625)"/>
        <path id="DejaVuSans-39" d="M 703 97 
L 703 672 
Q 941 559 1184 500 
Q 1428 441 1663 441 
Q 2288 441 2617 861 
Q 2947 1281 2994 2138 
Q 2813 1869 2534 1725 
Q 2256 1581 1919 1581 
Q 1219 1581 811 2004 
Q 403 2428 403 3163 
Q 403 3881 828 4315 
Q 1253 4750 1959 4750 
Q 2769 4750 3195 4129 
Q 3622 3509 3622 2328 
Q 3622 1225 3098 567 
Q 2575 -91 1691 -91 
Q 1453 -91 1209 -44 
Q 966 3 703 97 
z
M 1959 2075 
Q 2384 2075 2632 2365 
Q 2881 2656 2881 3163 
Q 2881 3666 2632 3958 
Q 2384 4250 1959 4250 
Q 1534 4250 1286 3958 
Q 1038 3666 1038 3163 
Q 1038 2656 1286 2365 
Q 1534 2075 1959 2075 
z
" transform="scale(0.015625)"/>
        <path id="DejaVuSans-4e" d="M 628 4666 
L 1478 4666 
L 3547 763 
L 3547 4666 
L 4159 4666 
L 4159 0 
L 3309 0 
L 1241 3903 
L 1241 0 
L 628 0 
L 628 4666 
z
" transform="scale(0.015625)"/>
        <path id="DejaVuSans-4f" d="M 2522 4238 
Q 1834 4238 1429 3725 
Q 1025 3213 1025 2328 
Q 1025 1447 1429 934 
Q 1834 422 2522 422 
Q 3209 422 3611 934 
Q 4013 1447 4013 2328 
Q 4013 3213 3611 3725 
Q 3209 4238 2522 4238 
z
M 2522 4750 
Q 3503 4750 4090 4092 
Q 4678 3434 4678 2328 
Q 4678 1225 4090 567 
Q 3503 -91 2522 -91 
Q 1538 -91 948 565 
Q 359 1222 359 2328 
Q 359 3434 948 4092 
Q 1538 4750 2522 4750 
z
" transform="scale(0.015625)"/>
        <path id="DejaVuSans-33" d="M 2597 2516 
Q 3050 2419 3304 2112 
Q 3559 1806 3559 1356 
Q 3559 666 3084 287 
Q 2609 -91 1734 -91 
Q 1441 -91 1130 -33 
Q 819 25 488 141 
L 488 750 
Q 750 597 1062 519 
Q 1375 441 1716 441 
Q 2309 441 2620 675 
Q 2931 909 2931 1356 
Q 2931 1769 2642 2001 
Q 2353 2234 1838 2234 
L 1294 2234 
L 1294 2753 
L 1863 2753 
Q 2328 2753 2575 2939 
Q 2822 3125 2822 3475 
Q 2822 3834 2567 4026 
Q 2313 4219 1838 4219 
Q 1578 4219 1281 4162 
Q 984 4106 628 3988 
L 628 4550 
Q 988 4650 1302 4700 
Q 1616 4750 1894 4750 
Q 2613 4750 3031 4423 
Q 3450 4097 3450 3541 
Q 3450 3153 3228 2886 
Q 3006 2619 2597 2516 
z
" transform="scale(0.015625)"/>
       </defs>
       <use xlink:href="#DejaVuSans-73"/>
       <use xlink:href="#DejaVuSans-75" x="52.099609"/>
       <use xlink:href="#DejaVuSans-6c" x="115.478516"/>
       <use xlink:href="#DejaVuSans-66" x="143.261719"/>
       <use xlink:href="#DejaVuSans-61" x="178.466797"/>
       <use xlink:href="#DejaVuSans-74" x="239.746094"/>
       <use xlink:href="#DejaVuSans-65" x="278.955078"/>
       <use xlink:href="#DejaVuSans-20" x="340.478516"/>
       <use xlink:href="#DejaVuSans-6f" x="372.265625"/>
       <use xlink:href="#DejaVuSans-66" x="433.447266"/>
       <use xlink:href="#DejaVuSans-20" x="468.652344"/>
       <use xlink:href="#DejaVuSans-70" x="500.439453"/>
       <use xlink:href="#DejaVuSans-69" x="563.916016"/>
       <use xlink:href="#DejaVuSans-70" x="591.699219"/>
       <use xlink:href="#DejaVuSans-65" x="655.175781"/>
       <use xlink:href="#DejaVuSans-72" x="716.699219"/>
       <use xlink:href="#DejaVuSans-69" x="757.8125"/>
       <use xlink:href="#DejaVuSans-6e" x="785.595703"/>
       <use xlink:href="#DejaVuSans-65" x="848.974609"/>
       <use xlink:href="#DejaVuSans-20" x="910.498047"/>
       <use xlink:href="#DejaVuSans-6d" x="942.285156"/>
       <use xlink:href="#DejaVuSans-65" x="1039.697266"/>
       <use xlink:href="#DejaVuSans-74" x="1101.220703"/>
       <use xlink:href="#DejaVuSans-61" x="1140.429688"/>
       <use xlink:href="#DejaVuSans-62" x="1201.708984"/>
       <use xlink:href="#DejaVuSans-6f" x="1265.185547"/>
       <use xlink:href="#DejaVuSans-6c" x="1326.367188"/>
       <use xlink:href="#DejaVuSans-69" x="1354.150391"/>
       <use xlink:href="#DejaVuSans-74" x="1381.933594"/>
       <use xlink:href="#DejaVuSans-65" x="1421.142578"/>
       <use xlink:href="#DejaVuSans-20" x="1482.666016"/>
       <use xlink:href="#DejaVuSans-43" x="1514.453125"/>
       <use xlink:href="#DejaVuSans-31" x="1584.277344"/>
       <use xlink:href="#DejaVuSans-36" x="1647.900391"/>
       <use xlink:href="#DejaVuSans-48" x="1711.523438"/>
       <use xlink:href="#DejaVuSans-31" x="1786.71875"/>
       <use xlink:href="#DejaVuSans-39" x="1850.341797"/>
       <use xlink:href="#DejaVuSans-4e" x="1913.964844"/>
       <use xlink:href="#DejaVuSans-4f" x="1988.769531"/>
       <use xlink:href="#DejaVuSans-33" x="2067.480469"/>
       <use xlink:href="#DejaVuSans-20" x="2131.103516"/>
       <use xlink:href="#DejaVuSans-28" x="2162.890625"/>
       <use xlink:href="#DejaVuSans-32" x="2201.904297"/>
       <use xlink:href="#DejaVuSans-29" x="2265.527344"/>
       <use xlink:href="#DejaVuSans-2a" x="2304.541016"/>
      </g>
     </g>
    </g>
    <g id="ytick_7">
     <g id="text_12">
      <!-- glucuronide of piperine metabolite C17H21NO3 (4)* -->
      <g style="fill: #333333" transform="translate(10.497344 434.165651) scale(0.13 -0.13)">
       <defs>
        <path id="DejaVuSans-37" d="M 525 4666 
L 3525 4666 
L 3525 4397 
L 1831 0 
L 1172 0 
L 2766 4134 
L 525 4134 
L 525 4666 
z
" transform="scale(0.015625)"/>
       </defs>
       <use xlink:href="#DejaVuSans-67"/>
       <use xlink:href="#DejaVuSans-6c" x="63.476562"/>
       <use xlink:href="#DejaVuSans-75" x="91.259766"/>
       <use xlink:href="#DejaVuSans-63" x="154.638672"/>
       <use xlink:href="#DejaVuSans-75" x="209.619141"/>
       <use xlink:href="#DejaVuSans-72" x="272.998047"/>
       <use xlink:href="#DejaVuSans-6f" x="311.861328"/>
       <use xlink:href="#DejaVuSans-6e" x="373.042969"/>
       <use xlink:href="#DejaVuSans-69" x="436.421875"/>
       <use xlink:href="#DejaVuSans-64" x="464.205078"/>
       <use xlink:href="#DejaVuSans-65" x="527.681641"/>
       <use xlink:href="#DejaVuSans-20" x="589.205078"/>
       <use xlink:href="#DejaVuSans-6f" x="620.992188"/>
       <use xlink:href="#DejaVuSans-66" x="682.173828"/>
       <use xlink:href="#DejaVuSans-20" x="717.378906"/>
       <use xlink:href="#DejaVuSans-70" x="749.166016"/>
       <use xlink:href="#DejaVuSans-69" x="812.642578"/>
       <use xlink:href="#DejaVuSans-70" x="840.425781"/>
       <use xlink:href="#DejaVuSans-65" x="903.902344"/>
       <use xlink:href="#DejaVuSans-72" x="965.425781"/>
       <use xlink:href="#DejaVuSans-69" x="1006.539062"/>
       <use xlink:href="#DejaVuSans-6e" x="1034.322266"/>
       <use xlink:href="#DejaVuSans-65" x="1097.701172"/>
       <use xlink:href="#DejaVuSans-20" x="1159.224609"/>
       <use xlink:href="#DejaVuSans-6d" x="1191.011719"/>
       <use xlink:href="#DejaVuSans-65" x="1288.423828"/>
       <use xlink:href="#DejaVuSans-74" x="1349.947266"/>
       <use xlink:href="#DejaVuSans-61" x="1389.15625"/>
       <use xlink:href="#DejaVuSans-62" x="1450.435547"/>
       <use xlink:href="#DejaVuSans-6f" x="1513.912109"/>
       <use xlink:href="#DejaVuSans-6c" x="1575.09375"/>
       <use xlink:href="#DejaVuSans-69" x="1602.876953"/>
       <use xlink:href="#DejaVuSans-74" x="1630.660156"/>
       <use xlink:href="#DejaVuSans-65" x="1669.869141"/>
       <use xlink:href="#DejaVuSans-20" x="1731.392578"/>
       <use xlink:href="#DejaVuSans-43" x="1763.179688"/>
       <use xlink:href="#DejaVuSans-31" x="1833.003906"/>
       <use xlink:href="#DejaVuSans-37" x="1896.626953"/>
       <use xlink:href="#DejaVuSans-48" x="1960.25"/>
       <use xlink:href="#DejaVuSans-32" x="2035.445312"/>
       <use xlink:href="#DejaVuSans-31" x="2099.068359"/>
       <use xlink:href="#DejaVuSans-4e" x="2162.691406"/>
       <use xlink:href="#DejaVuSans-4f" x="2237.496094"/>
       <use xlink:href="#DejaVuSans-33" x="2316.207031"/>
       <use xlink:href="#DejaVuSans-20" x="2379.830078"/>
       <use xlink:href="#DejaVuSans-28" x="2411.617188"/>
       <use xlink:href="#DejaVuSans-34" x="2450.630859"/>
       <use xlink:href="#DejaVuSans-29" x="2514.253906"/>
       <use xlink:href="#DejaVuSans-2a" x="2553.267578"/>
      </g>
     </g>
    </g>
    <g id="ytick_8">
     <g id="text_13">
      <!-- 1-myristoyl-GPC (14:0) -->
      <g style="fill: #333333" transform="translate(199.907344 404.278032) scale(0.13 -0.13)">
       <use xlink:href="#DejaVuSans-31"/>
       <use xlink:href="#DejaVuSans-2d" x="63.623047"/>
       <use xlink:href="#DejaVuSans-6d" x="99.707031"/>
       <use xlink:href="#DejaVuSans-79" x="197.119141"/>
       <use xlink:href="#DejaVuSans-72" x="256.298828"/>
       <use xlink:href="#DejaVuSans-69" x="297.412109"/>
       <use xlink:href="#DejaVuSans-73" x="325.195312"/>
       <use xlink:href="#DejaVuSans-74" x="377.294922"/>
       <use xlink:href="#DejaVuSans-6f" x="416.503906"/>
       <use xlink:href="#DejaVuSans-79" x="477.685547"/>
       <use xlink:href="#DejaVuSans-6c" x="536.865234"/>
       <use xlink:href="#DejaVuSans-2d" x="564.648438"/>
       <use xlink:href="#DejaVuSans-47" x="604.357422"/>
       <use xlink:href="#DejaVuSans-50" x="681.847656"/>
       <use xlink:href="#DejaVuSans-43" x="742.150391"/>
       <use xlink:href="#DejaVuSans-20" x="811.974609"/>
       <use xlink:href="#DejaVuSans-28" x="843.761719"/>
       <use xlink:href="#DejaVuSans-31" x="882.775391"/>
       <use xlink:href="#DejaVuSans-34" x="946.398438"/>
       <use xlink:href="#DejaVuSans-3a" x="1010.021484"/>
       <use xlink:href="#DejaVuSans-30" x="1043.712891"/>
       <use xlink:href="#DejaVuSans-29" x="1107.335938"/>
      </g>
     </g>
    </g>
    <g id="ytick_9">
     <g id="text_14">
      <!-- 1-methylxanthine -->
      <g style="fill: #333333" transform="translate(233.581406 374.390413) scale(0.13 -0.13)">
       <defs>
        <path id="DejaVuSans-68" d="M 3513 2113 
L 3513 0 
L 2938 0 
L 2938 2094 
Q 2938 2591 2744 2837 
Q 2550 3084 2163 3084 
Q 1697 3084 1428 2787 
Q 1159 2491 1159 1978 
L 1159 0 
L 581 0 
L 581 4863 
L 1159 4863 
L 1159 2956 
Q 1366 3272 1645 3428 
Q 1925 3584 2291 3584 
Q 2894 3584 3203 3211 
Q 3513 2838 3513 2113 
z
" transform="scale(0.015625)"/>
        <path id="DejaVuSans-78" d="M 3513 3500 
L 2247 1797 
L 3578 0 
L 2900 0 
L 1881 1375 
L 863 0 
L 184 0 
L 1544 1831 
L 300 3500 
L 978 3500 
L 1906 2253 
L 2834 3500 
L 3513 3500 
z
" transform="scale(0.015625)"/>
       </defs>
       <use xlink:href="#DejaVuSans-31"/>
       <use xlink:href="#DejaVuSans-2d" x="63.623047"/>
       <use xlink:href="#DejaVuSans-6d" x="99.707031"/>
       <use xlink:href="#DejaVuSans-65" x="197.119141"/>
       <use xlink:href="#DejaVuSans-74" x="258.642578"/>
       <use xlink:href="#DejaVuSans-68" x="297.851562"/>
       <use xlink:href="#DejaVuSans-79" x="361.230469"/>
       <use xlink:href="#DejaVuSans-6c" x="420.410156"/>
       <use xlink:href="#DejaVuSans-78" x="448.193359"/>
       <use xlink:href="#DejaVuSans-61" x="507.373047"/>
       <use xlink:href="#DejaVuSans-6e" x="568.652344"/>
       <use xlink:href="#DejaVuSans-74" x="632.03125"/>
       <use xlink:href="#DejaVuSans-68" x="671.240234"/>
       <use xlink:href="#DejaVuSans-69" x="734.619141"/>
       <use xlink:href="#DejaVuSans-6e" x="762.402344"/>
       <use xlink:href="#DejaVuSans-65" x="825.78125"/>
      </g>
     </g>
    </g>
    <g id="ytick_10">
     <g id="text_15">
      <!-- trigonelline (N'-methylnicotinate) -->
      <g style="fill: #333333" transform="translate(132.831406 344.502794) scale(0.13 -0.13)">
       <defs>
        <path id="DejaVuSans-27" d="M 1147 4666 
L 1147 2931 
L 616 2931 
L 616 4666 
L 1147 4666 
z
" transform="scale(0.015625)"/>
       </defs>
       <use xlink:href="#DejaVuSans-74"/>
       <use xlink:href="#DejaVuSans-72" x="39.208984"/>
       <use xlink:href="#DejaVuSans-69" x="80.322266"/>
       <use xlink:href="#DejaVuSans-67" x="108.105469"/>
       <use xlink:href="#DejaVuSans-6f" x="171.582031"/>
       <use xlink:href="#DejaVuSans-6e" x="232.763672"/>
       <use xlink:href="#DejaVuSans-65" x="296.142578"/>
       <use xlink:href="#DejaVuSans-6c" x="357.666016"/>
       <use xlink:href="#DejaVuSans-6c" x="385.449219"/>
       <use xlink:href="#DejaVuSans-69" x="413.232422"/>
       <use xlink:href="#DejaVuSans-6e" x="441.015625"/>
       <use xlink:href="#DejaVuSans-65" x="504.394531"/>
       <use xlink:href="#DejaVuSans-20" x="565.917969"/>
       <use xlink:href="#DejaVuSans-28" x="597.705078"/>
       <use xlink:href="#DejaVuSans-4e" x="636.71875"/>
       <use xlink:href="#DejaVuSans-27" x="711.523438"/>
       <use xlink:href="#DejaVuSans-2d" x="739.013672"/>
       <use xlink:href="#DejaVuSans-6d" x="775.097656"/>
       <use xlink:href="#DejaVuSans-65" x="872.509766"/>
       <use xlink:href="#DejaVuSans-74" x="934.033203"/>
       <use xlink:href="#DejaVuSans-68" x="973.242188"/>
       <use xlink:href="#DejaVuSans-79" x="1036.621094"/>
       <use xlink:href="#DejaVuSans-6c" x="1095.800781"/>
       <use xlink:href="#DejaVuSans-6e" x="1123.583984"/>
       <use xlink:href="#DejaVuSans-69" x="1186.962891"/>
       <use xlink:href="#DejaVuSans-63" x="1214.746094"/>
       <use xlink:href="#DejaVuSans-6f" x="1269.726562"/>
       <use xlink:href="#DejaVuSans-74" x="1330.908203"/>
       <use xlink:href="#DejaVuSans-69" x="1370.117188"/>
       <use xlink:href="#DejaVuSans-6e" x="1397.900391"/>
       <use xlink:href="#DejaVuSans-61" x="1461.279297"/>
       <use xlink:href="#DejaVuSans-74" x="1522.558594"/>
       <use xlink:href="#DejaVuSans-65" x="1561.767578"/>
       <use xlink:href="#DejaVuSans-29" x="1623.291016"/>
      </g>
     </g>
    </g>
    <g id="ytick_11">
     <g id="text_16">
      <!-- X - 19141 -->
      <g style="fill: #333333" transform="translate(285.715469 314.615175) scale(0.13 -0.13)">
       <use xlink:href="#DejaVuSans-58"/>
       <use xlink:href="#DejaVuSans-20" x="68.505859"/>
       <use xlink:href="#DejaVuSans-2d" x="100.292969"/>
       <use xlink:href="#DejaVuSans-20" x="136.376953"/>
       <use xlink:href="#DejaVuSans-31" x="168.164062"/>
       <use xlink:href="#DejaVuSans-39" x="231.787109"/>
       <use xlink:href="#DejaVuSans-31" x="295.410156"/>
       <use xlink:href="#DejaVuSans-34" x="359.033203"/>
       <use xlink:href="#DejaVuSans-31" x="422.65625"/>
      </g>
     </g>
    </g>
    <g id="ytick_12">
     <g id="text_17">
      <!-- 6-oxopiperidine-2-carboxylate -->
      <g style="fill: #333333" transform="translate(153.785781 284.727556) scale(0.13 -0.13)">
       <use xlink:href="#DejaVuSans-36"/>
       <use xlink:href="#DejaVuSans-2d" x="63.623047"/>
       <use xlink:href="#DejaVuSans-6f" x="101.582031"/>
       <use xlink:href="#DejaVuSans-78" x="159.638672"/>
       <use xlink:href="#DejaVuSans-6f" x="215.693359"/>
       <use xlink:href="#DejaVuSans-70" x="276.875"/>
       <use xlink:href="#DejaVuSans-69" x="340.351562"/>
       <use xlink:href="#DejaVuSans-70" x="368.134766"/>
       <use xlink:href="#DejaVuSans-65" x="431.611328"/>
       <use xlink:href="#DejaVuSans-72" x="493.134766"/>
       <use xlink:href="#DejaVuSans-69" x="534.248047"/>
       <use xlink:href="#DejaVuSans-64" x="562.03125"/>
       <use xlink:href="#DejaVuSans-69" x="625.507812"/>
       <use xlink:href="#DejaVuSans-6e" x="653.291016"/>
       <use xlink:href="#DejaVuSans-65" x="716.669922"/>
       <use xlink:href="#DejaVuSans-2d" x="778.193359"/>
       <use xlink:href="#DejaVuSans-32" x="814.277344"/>
       <use xlink:href="#DejaVuSans-2d" x="877.900391"/>
       <use xlink:href="#DejaVuSans-63" x="913.984375"/>
       <use xlink:href="#DejaVuSans-61" x="968.964844"/>
       <use xlink:href="#DejaVuSans-72" x="1030.244141"/>
       <use xlink:href="#DejaVuSans-62" x="1071.357422"/>
       <use xlink:href="#DejaVuSans-6f" x="1134.833984"/>
       <use xlink:href="#DejaVuSans-78" x="1192.890625"/>
       <use xlink:href="#DejaVuSans-79" x="1252.070312"/>
       <use xlink:href="#DejaVuSans-6c" x="1311.25"/>
       <use xlink:href="#DejaVuSans-61" x="1339.033203"/>
       <use xlink:href="#DejaVuSans-74" x="1400.3125"/>
       <use xlink:href="#DejaVuSans-65" x="1439.521484"/>
      </g>
     </g>
    </g>
    <g id="ytick_13">
     <g id="text_18">
      <!-- sulfate of piperine metabolite C16H19NO3 (3)* -->
      <g style="fill: #333333" transform="translate(42.834844 254.839937) scale(0.13 -0.13)">
       <use xlink:href="#DejaVuSans-73"/>
       <use xlink:href="#DejaVuSans-75" x="52.099609"/>
       <use xlink:href="#DejaVuSans-6c" x="115.478516"/>
       <use xlink:href="#DejaVuSans-66" x="143.261719"/>
       <use xlink:href="#DejaVuSans-61" x="178.466797"/>
       <use xlink:href="#DejaVuSans-74" x="239.746094"/>
       <use xlink:href="#DejaVuSans-65" x="278.955078"/>
       <use xlink:href="#DejaVuSans-20" x="340.478516"/>
       <use xlink:href="#DejaVuSans-6f" x="372.265625"/>
       <use xlink:href="#DejaVuSans-66" x="433.447266"/>
       <use xlink:href="#DejaVuSans-20" x="468.652344"/>
       <use xlink:href="#DejaVuSans-70" x="500.439453"/>
       <use xlink:href="#DejaVuSans-69" x="563.916016"/>
       <use xlink:href="#DejaVuSans-70" x="591.699219"/>
       <use xlink:href="#DejaVuSans-65" x="655.175781"/>
       <use xlink:href="#DejaVuSans-72" x="716.699219"/>
       <use xlink:href="#DejaVuSans-69" x="757.8125"/>
       <use xlink:href="#DejaVuSans-6e" x="785.595703"/>
       <use xlink:href="#DejaVuSans-65" x="848.974609"/>
       <use xlink:href="#DejaVuSans-20" x="910.498047"/>
       <use xlink:href="#DejaVuSans-6d" x="942.285156"/>
       <use xlink:href="#DejaVuSans-65" x="1039.697266"/>
       <use xlink:href="#DejaVuSans-74" x="1101.220703"/>
       <use xlink:href="#DejaVuSans-61" x="1140.429688"/>
       <use xlink:href="#DejaVuSans-62" x="1201.708984"/>
       <use xlink:href="#DejaVuSans-6f" x="1265.185547"/>
       <use xlink:href="#DejaVuSans-6c" x="1326.367188"/>
       <use xlink:href="#DejaVuSans-69" x="1354.150391"/>
       <use xlink:href="#DejaVuSans-74" x="1381.933594"/>
       <use xlink:href="#DejaVuSans-65" x="1421.142578"/>
       <use xlink:href="#DejaVuSans-20" x="1482.666016"/>
       <use xlink:href="#DejaVuSans-43" x="1514.453125"/>
       <use xlink:href="#DejaVuSans-31" x="1584.277344"/>
       <use xlink:href="#DejaVuSans-36" x="1647.900391"/>
       <use xlink:href="#DejaVuSans-48" x="1711.523438"/>
       <use xlink:href="#DejaVuSans-31" x="1786.71875"/>
       <use xlink:href="#DejaVuSans-39" x="1850.341797"/>
       <use xlink:href="#DejaVuSans-4e" x="1913.964844"/>
       <use xlink:href="#DejaVuSans-4f" x="1988.769531"/>
       <use xlink:href="#DejaVuSans-33" x="2067.480469"/>
       <use xlink:href="#DejaVuSans-20" x="2131.103516"/>
       <use xlink:href="#DejaVuSans-28" x="2162.890625"/>
       <use xlink:href="#DejaVuSans-33" x="2201.904297"/>
       <use xlink:href="#DejaVuSans-29" x="2265.527344"/>
       <use xlink:href="#DejaVuSans-2a" x="2304.541016"/>
      </g>
     </g>
    </g>
    <g id="ytick_14">
     <g id="text_19">
      <!-- hydantoin-5-propionate -->
      <g style="fill: #333333" transform="translate(195.607188 224.952318) scale(0.13 -0.13)">
       <use xlink:href="#DejaVuSans-68"/>
       <use xlink:href="#DejaVuSans-79" x="63.378906"/>
       <use xlink:href="#DejaVuSans-64" x="122.558594"/>
       <use xlink:href="#DejaVuSans-61" x="186.035156"/>
       <use xlink:href="#DejaVuSans-6e" x="247.314453"/>
       <use xlink:href="#DejaVuSans-74" x="310.693359"/>
       <use xlink:href="#DejaVuSans-6f" x="349.902344"/>
       <use xlink:href="#DejaVuSans-69" x="411.083984"/>
       <use xlink:href="#DejaVuSans-6e" x="438.867188"/>
       <use xlink:href="#DejaVuSans-2d" x="502.246094"/>
       <use xlink:href="#DejaVuSans-35" x="538.330078"/>
       <use xlink:href="#DejaVuSans-2d" x="601.953125"/>
       <use xlink:href="#DejaVuSans-70" x="638.037109"/>
       <use xlink:href="#DejaVuSans-72" x="701.513672"/>
       <use xlink:href="#DejaVuSans-6f" x="740.376953"/>
       <use xlink:href="#DejaVuSans-70" x="801.558594"/>
       <use xlink:href="#DejaVuSans-69" x="865.035156"/>
       <use xlink:href="#DejaVuSans-6f" x="892.818359"/>
       <use xlink:href="#DejaVuSans-6e" x="954"/>
       <use xlink:href="#DejaVuSans-61" x="1017.378906"/>
       <use xlink:href="#DejaVuSans-74" x="1078.658203"/>
       <use xlink:href="#DejaVuSans-65" x="1117.867188"/>
      </g>
     </g>
    </g>
    <g id="ytick_15">
     <g id="text_20">
      <!-- piperine -->
      <g style="fill: #333333" transform="translate(295.619844 195.064699) scale(0.13 -0.13)">
       <use xlink:href="#DejaVuSans-70"/>
       <use xlink:href="#DejaVuSans-69" x="63.476562"/>
       <use xlink:href="#DejaVuSans-70" x="91.259766"/>
       <use xlink:href="#DejaVuSans-65" x="154.736328"/>
       <use xlink:href="#DejaVuSans-72" x="216.259766"/>
       <use xlink:href="#DejaVuSans-69" x="257.373047"/>
       <use xlink:href="#DejaVuSans-6e" x="285.15625"/>
       <use xlink:href="#DejaVuSans-65" x="348.535156"/>
      </g>
     </g>
    </g>
    <g id="ytick_16">
     <g id="text_21">
      <!-- X - 12844 -->
      <g style="fill: #333333" transform="translate(285.715469 165.17708) scale(0.13 -0.13)">
       <use xlink:href="#DejaVuSans-58"/>
       <use xlink:href="#DejaVuSans-20" x="68.505859"/>
       <use xlink:href="#DejaVuSans-2d" x="100.292969"/>
       <use xlink:href="#DejaVuSans-20" x="136.376953"/>
       <use xlink:href="#DejaVuSans-31" x="168.164062"/>
       <use xlink:href="#DejaVuSans-32" x="231.787109"/>
       <use xlink:href="#DejaVuSans-38" x="295.410156"/>
       <use xlink:href="#DejaVuSans-34" x="359.033203"/>
       <use xlink:href="#DejaVuSans-34" x="422.65625"/>
      </g>
     </g>
    </g>
    <g id="ytick_17">
     <g id="text_22">
      <!-- 6-bromotryptophan -->
      <g style="fill: #333333" transform="translate(221.956563 135.289461) scale(0.13 -0.13)">
       <use xlink:href="#DejaVuSans-36"/>
       <use xlink:href="#DejaVuSans-2d" x="63.623047"/>
       <use xlink:href="#DejaVuSans-62" x="99.707031"/>
       <use xlink:href="#DejaVuSans-72" x="163.183594"/>
       <use xlink:href="#DejaVuSans-6f" x="202.046875"/>
       <use xlink:href="#DejaVuSans-6d" x="263.228516"/>
       <use xlink:href="#DejaVuSans-6f" x="360.640625"/>
       <use xlink:href="#DejaVuSans-74" x="421.822266"/>
       <use xlink:href="#DejaVuSans-72" x="461.03125"/>
       <use xlink:href="#DejaVuSans-79" x="502.144531"/>
       <use xlink:href="#DejaVuSans-70" x="561.324219"/>
       <use xlink:href="#DejaVuSans-74" x="624.800781"/>
       <use xlink:href="#DejaVuSans-6f" x="664.009766"/>
       <use xlink:href="#DejaVuSans-70" x="725.191406"/>
       <use xlink:href="#DejaVuSans-68" x="788.667969"/>
       <use xlink:href="#DejaVuSans-61" x="852.046875"/>
       <use xlink:href="#DejaVuSans-6e" x="913.326172"/>
      </g>
     </g>
    </g>
    <g id="ytick_18">
     <g id="text_23">
      <!-- 2-palmitoyl-GPC (16:0)* -->
      <g style="fill: #333333" transform="translate(193.387031 105.401842) scale(0.13 -0.13)">
       <use xlink:href="#DejaVuSans-32"/>
       <use xlink:href="#DejaVuSans-2d" x="63.623047"/>
       <use xlink:href="#DejaVuSans-70" x="99.707031"/>
       <use xlink:href="#DejaVuSans-61" x="163.183594"/>
       <use xlink:href="#DejaVuSans-6c" x="224.462891"/>
       <use xlink:href="#DejaVuSans-6d" x="252.246094"/>
       <use xlink:href="#DejaVuSans-69" x="349.658203"/>
       <use xlink:href="#DejaVuSans-74" x="377.441406"/>
       <use xlink:href="#DejaVuSans-6f" x="416.650391"/>
       <use xlink:href="#DejaVuSans-79" x="477.832031"/>
       <use xlink:href="#DejaVuSans-6c" x="537.011719"/>
       <use xlink:href="#DejaVuSans-2d" x="564.794922"/>
       <use xlink:href="#DejaVuSans-47" x="604.503906"/>
       <use xlink:href="#DejaVuSans-50" x="681.994141"/>
       <use xlink:href="#DejaVuSans-43" x="742.296875"/>
       <use xlink:href="#DejaVuSans-20" x="812.121094"/>
       <use xlink:href="#DejaVuSans-28" x="843.908203"/>
       <use xlink:href="#DejaVuSans-31" x="882.921875"/>
       <use xlink:href="#DejaVuSans-36" x="946.544922"/>
       <use xlink:href="#DejaVuSans-3a" x="1010.167969"/>
       <use xlink:href="#DejaVuSans-30" x="1043.859375"/>
       <use xlink:href="#DejaVuSans-29" x="1107.482422"/>
       <use xlink:href="#DejaVuSans-2a" x="1146.496094"/>
      </g>
     </g>
    </g>
    <g id="ytick_19">
     <g id="text_24">
      <!-- X - 23639 -->
      <g style="fill: #333333" transform="translate(285.715469 75.514222) scale(0.13 -0.13)">
       <use xlink:href="#DejaVuSans-58"/>
       <use xlink:href="#DejaVuSans-20" x="68.505859"/>
       <use xlink:href="#DejaVuSans-2d" x="100.292969"/>
       <use xlink:href="#DejaVuSans-20" x="136.376953"/>
       <use xlink:href="#DejaVuSans-32" x="168.164062"/>
       <use xlink:href="#DejaVuSans-33" x="231.787109"/>
       <use xlink:href="#DejaVuSans-36" x="295.410156"/>
       <use xlink:href="#DejaVuSans-33" x="359.033203"/>
       <use xlink:href="#DejaVuSans-39" x="422.65625"/>
      </g>
     </g>
    </g>
    <g id="ytick_20">
     <g id="text_25">
      <!-- (N(1) + N(8))-acetylspermidine -->
      <g style="fill: #333333" transform="translate(146.623594 45.626603) scale(0.13 -0.13)">
       <defs>
        <path id="DejaVuSans-2b" d="M 2944 4013 
L 2944 2272 
L 4684 2272 
L 4684 1741 
L 2944 1741 
L 2944 0 
L 2419 0 
L 2419 1741 
L 678 1741 
L 678 2272 
L 2419 2272 
L 2419 4013 
L 2944 4013 
z
" transform="scale(0.015625)"/>
       </defs>
       <use xlink:href="#DejaVuSans-28"/>
       <use xlink:href="#DejaVuSans-4e" x="39.013672"/>
       <use xlink:href="#DejaVuSans-28" x="113.818359"/>
       <use xlink:href="#DejaVuSans-31" x="152.832031"/>
       <use xlink:href="#DejaVuSans-29" x="216.455078"/>
       <use xlink:href="#DejaVuSans-20" x="255.46875"/>
       <use xlink:href="#DejaVuSans-2b" x="287.255859"/>
       <use xlink:href="#DejaVuSans-20" x="371.044922"/>
       <use xlink:href="#DejaVuSans-4e" x="402.832031"/>
       <use xlink:href="#DejaVuSans-28" x="477.636719"/>
       <use xlink:href="#DejaVuSans-38" x="516.650391"/>
       <use xlink:href="#DejaVuSans-29" x="580.273438"/>
       <use xlink:href="#DejaVuSans-29" x="619.287109"/>
       <use xlink:href="#DejaVuSans-2d" x="658.300781"/>
       <use xlink:href="#DejaVuSans-61" x="694.384766"/>
       <use xlink:href="#DejaVuSans-63" x="755.664062"/>
       <use xlink:href="#DejaVuSans-65" x="810.644531"/>
       <use xlink:href="#DejaVuSans-74" x="872.167969"/>
       <use xlink:href="#DejaVuSans-79" x="911.376953"/>
       <use xlink:href="#DejaVuSans-6c" x="970.556641"/>
       <use xlink:href="#DejaVuSans-73" x="998.339844"/>
       <use xlink:href="#DejaVuSans-70" x="1050.439453"/>
       <use xlink:href="#DejaVuSans-65" x="1113.916016"/>
       <use xlink:href="#DejaVuSans-72" x="1175.439453"/>
       <use xlink:href="#DejaVuSans-6d" x="1214.802734"/>
       <use xlink:href="#DejaVuSans-69" x="1312.214844"/>
       <use xlink:href="#DejaVuSans-64" x="1339.998047"/>
       <use xlink:href="#DejaVuSans-69" x="1403.474609"/>
       <use xlink:href="#DejaVuSans-6e" x="1431.257812"/>
       <use xlink:href="#DejaVuSans-65" x="1494.636719"/>
      </g>
     </g>
    </g>
   </g>
   <g id="patch_23">
    <path d="M 355.93 638.44 
L 563.074544 638.44 
" style="fill: none; stroke: #000000; stroke-width: 0.8; stroke-linejoin: miter; stroke-linecap: square"/>
   </g>
  </g>
 </g>
 <defs>
  <clipPath id="p60494ab249">
   <rect x="355.93" y="10.8" width="207.144544" height="627.64"/>
  </clipPath>
 </defs>
</svg>
