<?xml version="1.0" encoding="UTF-8" standalone="no"?>
<svg
   width="663.59998pt"
   height="725.40002pt"
   viewBox="0 0 663.59998 725.40002"
   version="1.1"
   id="svg229"
   sodipodi:docname="pro_shap_class_2.svg"
   inkscape:export-filename="pro_shap_class_2_large.png"
   inkscape:export-xdpi="96"
   inkscape:export-ydpi="96"
   inkscape:version="1.4 (e7c3feb1, 2024-10-09)"
   xmlns:inkscape="http://www.inkscape.org/namespaces/inkscape"
   xmlns:sodipodi="http://sodipodi.sourceforge.net/DTD/sodipodi-0.dtd"
   xmlns:xlink="http://www.w3.org/1999/xlink"
   xmlns="http://www.w3.org/2000/svg"
   xmlns:svg="http://www.w3.org/2000/svg"
   xmlns:rdf="http://www.w3.org/1999/02/22-rdf-syntax-ns#"
   xmlns:cc="http://creativecommons.org/ns#"
   xmlns:dc="http://purl.org/dc/elements/1.1/">
  <sodipodi:namedview
     id="namedview229"
     pagecolor="#ffffff"
     bordercolor="#000000"
     borderopacity="0.25"
     inkscape:showpageshadow="2"
     inkscape:pageopacity="0.0"
     inkscape:pagecheckerboard="0"
     inkscape:deskcolor="#d1d1d1"
     inkscape:document-units="pt"
     showborder="false"
     inkscape:zoom="0.4229948"
     inkscape:cx="462.18062"
     inkscape:cy="423.17305"
     inkscape:window-width="1104"
     inkscape:window-height="643"
     inkscape:window-x="0"
     inkscape:window-y="38"
     inkscape:window-maximized="0"
     inkscape:current-layer="axes_1" />
  <metadata
     id="metadata1">
    <rdf:RDF>
      <cc:Work>
        <dc:type
           rdf:resource="http://purl.org/dc/dcmitype/StillImage" />
        <dc:date>2024-09-25T23:22:51.679734</dc:date>
        <dc:format>image/svg+xml</dc:format>
        <dc:creator>
          <cc:Agent>
            <dc:title>Matplotlib v3.7.1, https://matplotlib.org/</dc:title>
          </cc:Agent>
        </dc:creator>
      </cc:Work>
    </rdf:RDF>
  </metadata>
  <defs
     id="defs1">
    <style
       type="text/css"
       id="style1">*{stroke-linejoin: round; stroke-linecap: butt}</style>
  </defs>
  <g
     id="figure_1">
    <g
       id="patch_1"
       transform="translate(56.34371,22.537484)">
      <path
         d="M 0,684 H 576 V 0 H 0 Z"
         style="fill:#ffffff"
         id="path1" />
    </g>
    <g
       id="axes_1">
      <g
         id="patch_2"
         transform="matrix(1.3631763,0,0,1.149618,-105.72668,-9.128368)">
        <path
           d="M 79.09,638.44 H 565.2 V 10.8 H 79.09 Z"
           style="fill:#ffffff"
           id="path2" />
      </g>
      <g
         id="line2d_1"
         transform="translate(56.34371,22.537484)">
        <path
           d="M 79.09,638.44 V 10.8"
           clip-path="url(#p13f4c6d0eb)"
           style="fill:none;stroke:#999999;stroke-width:1.5;stroke-linecap:square"
           id="path3" />
      </g>
      <g
         id="patch_3"
         transform="translate(56.34371,22.537484)">
        <path
           d="m 79.09,619.01305 v 0 -20.92134 0 z"
           clip-path="url(#p13f4c6d0eb)"
           style="fill:#008bfb"
           id="path4" />
      </g>
      <g
         id="patch_4"
         transform="translate(56.34371,22.537484)">
        <path
           d="m 79.09,589.12543 v 0 -20.92133 0 z"
           clip-path="url(#p13f4c6d0eb)"
           style="fill:#008bfb"
           id="path5" />
      </g>
      <g
         id="patch_5"
         transform="translate(56.34371,22.537484)">
        <path
           d="m 79.09,559.23781 v 0 -20.92133 0 z"
           clip-path="url(#p13f4c6d0eb)"
           style="fill:#008bfb"
           id="path6" />
      </g>
      <g
         id="patch_6"
         transform="translate(56.34371,22.537484)">
        <path
           d="m 79.09,529.35019 v 0 -20.92133 0 z"
           clip-path="url(#p13f4c6d0eb)"
           style="fill:#008bfb"
           id="path7" />
      </g>
      <g
         id="patch_7"
         transform="translate(56.34371,22.537484)">
        <path
           d="m 79.09,499.46257 v 0 -20.92133 0 z"
           clip-path="url(#p13f4c6d0eb)"
           style="fill:#008bfb"
           id="path8" />
      </g>
      <g
         id="patch_8"
         transform="translate(56.34371,22.537484)">
        <path
           d="m 79.09,469.57495 v 0 -20.92133 0 z"
           clip-path="url(#p13f4c6d0eb)"
           style="fill:#008bfb"
           id="path9" />
      </g>
      <g
         id="patch_9"
         transform="translate(56.34371,22.537484)">
        <path
           d="m 79.09,439.68733 v 0 -20.92133 0 z"
           clip-path="url(#p13f4c6d0eb)"
           style="fill:#008bfb"
           id="path10" />
      </g>
      <g
         id="patch_10"
         transform="translate(56.34371,22.537484)">
        <path
           d="m 79.09,409.79971 v 0 -20.92133 0 z"
           clip-path="url(#p13f4c6d0eb)"
           style="fill:#008bfb"
           id="path11" />
      </g>
      <g
         id="patch_11"
         transform="translate(56.34371,22.537484)">
        <path
           d="m 79.09,379.9121 v 0 -20.92134 0 z"
           clip-path="url(#p13f4c6d0eb)"
           style="fill:#008bfb"
           id="path12" />
      </g>
      <g
         id="patch_12"
         transform="translate(56.34371,22.537484)">
        <path
           d="m 79.09,350.02448 v 0 -20.92134 0 z"
           clip-path="url(#p13f4c6d0eb)"
           style="fill:#008bfb"
           id="path13" />
      </g>
      <g
         id="patch_13"
         transform="translate(56.34371,22.537484)">
        <path
           d="m 79.09,320.13686 v 0 -20.92134 0 z"
           clip-path="url(#p13f4c6d0eb)"
           style="fill:#008bfb"
           id="path14" />
      </g>
      <g
         id="patch_14"
         transform="translate(56.34371,22.537484)">
        <path
           d="m 79.09,290.24924 h 7.635705 V 269.3279 H 79.09 Z"
           clip-path="url(#p13f4c6d0eb)"
           style="fill:#008bfb"
           id="path15" />
      </g>
      <g
         id="patch_15"
         transform="translate(56.34371,22.537484)">
        <path
           d="M 79.09,260.36162 H 92.694119 V 239.44029 H 79.09 Z"
           clip-path="url(#p13f4c6d0eb)"
           style="fill:#008bfb"
           id="path16" />
      </g>
      <g
         id="patch_16"
         transform="translate(56.34371,22.537484)">
        <path
           d="M 79.09,230.474 H 95.707127 V 209.55267 H 79.09 Z"
           clip-path="url(#p13f4c6d0eb)"
           style="fill:#008bfb"
           id="path17" />
      </g>
      <g
         id="patch_17"
         transform="translate(56.34371,22.537484)">
        <path
           d="M 79.09,200.58638 H 99.854519 V 179.66505 H 79.09 Z"
           clip-path="url(#p13f4c6d0eb)"
           style="fill:#008bfb"
           id="path18" />
      </g>
      <g
         id="patch_18"
         transform="translate(56.34371,22.537484)">
        <path
           d="m 79.09,170.69876 h 23.23845 V 149.77743 H 79.09 Z"
           clip-path="url(#p13f4c6d0eb)"
           style="fill:#008bfb"
           id="path19" />
      </g>
      <g
         id="patch_19"
         transform="translate(56.34371,22.537484)">
        <path
           d="m 79.09,140.81114 h 36.29836 V 119.88981 H 79.09 Z"
           clip-path="url(#p13f4c6d0eb)"
           style="fill:#008bfb"
           id="path20" />
      </g>
      <g
         id="patch_20"
         transform="translate(56.34371,22.537484)">
        <path
           d="m 79.09,110.92352 h 37.45714 V 90.00219 H 79.09 Z"
           clip-path="url(#p13f4c6d0eb)"
           style="fill:#008bfb"
           id="path21" />
      </g>
      <g
         id="patch_21"
         transform="translate(56.34371,22.537484)">
        <path
           d="M 79.09,81.035905 H 189.67414 V 60.114571 H 79.09 Z"
           clip-path="url(#p13f4c6d0eb)"
           style="fill:#008bfb"
           id="path22" />
      </g>
      <g
         id="patch_22"
         transform="translate(56.34371,22.537484)">
        <path
           d="M 79.09,51.148286 H 542.05191 V 30.226952 H 79.09 Z"
           clip-path="url(#p13f4c6d0eb)"
           style="fill:#008bfb"
           id="path23" />
      </g>
      <g
         id="matplotlib.axis_1"
         transform="translate(56.34371,22.537484)">
        <g
           id="xtick_1">
          <g
             id="line2d_2">
            <defs
               id="defs23">
              <path
                 id="ma7124808b6"
                 d="M 0,0 V 3.5"
                 style="stroke:#333333;stroke-width:0.8" />
            </defs>
            <g
               id="g23">
              <use
                 xlink:href="#ma7124808b6"
                 x="79.089996"
                 y="638.44"
                 style="fill:#333333;stroke:#333333;stroke-width:0.8"
                 id="use23" />
            </g>
          </g>
          <g
             id="text_1">
            <!-- 0.0 -->
            <g
               style="fill:#333333"
               transform="matrix(0.11,0,0,-0.11,70.343281,653.79828)"
               id="g26">
              <defs
                 id="defs24">
                <path
                   id="DejaVuSans-30"
                   d="m 2034,4250 q -487,0 -733,-480 -245,-479 -245,-1442 0,-959 245,-1439 246,-480 733,-480 491,0 736,480 246,480 246,1439 0,963 -246,1442 -245,480 -736,480 z m 0,500 q 785,0 1199,-621 414,-620 414,-1801 0,-1178 -414,-1799 -414,-620 -1199,-620 -784,0 -1198,620 -414,621 -414,1799 0,1181 414,1801 414,621 1198,621 z"
                   transform="scale(0.015625)" />
                <path
                   id="DejaVuSans-2e"
                   d="m 684,794 h 660 V 0 H 684 Z"
                   transform="scale(0.015625)" />
              </defs>
              <use
                 xlink:href="#DejaVuSans-30"
                 id="use24" />
              <use
                 xlink:href="#DejaVuSans-2e"
                 x="63.623047"
                 id="use25" />
              <use
                 xlink:href="#DejaVuSans-30"
                 x="95.410156"
                 id="use26" />
            </g>
          </g>
        </g>
        <g
           id="xtick_2">
          <g
             id="line2d_3">
            <g
               id="g27">
              <use
                 xlink:href="#ma7124808b6"
                 x="172.89542"
                 y="638.44"
                 style="fill:#333333;stroke:#333333;stroke-width:0.8"
                 id="use27" />
            </g>
          </g>
          <g
             id="text_2">
            <!-- 0.2 -->
            <g
               style="fill:#333333"
               transform="matrix(0.11,0,0,-0.11,164.1487,653.79828)"
               id="g30">
              <defs
                 id="defs27">
                <path
                   id="DejaVuSans-32"
                   d="M 1228,531 H 3431 V 0 H 469 v 531 q 359,372 979,998 621,627 780,809 303,340 423,576 121,236 121,464 0,372 -261,606 -261,235 -680,235 -297,0 -627,-103 -329,-103 -704,-313 v 638 q 381,153 712,231 332,78 607,78 725,0 1156,-363 431,-362 431,-968 0,-288 -108,-546 -107,-257 -392,-607 -78,-91 -497,-524 Q 1991,1309 1228,531 Z"
                   transform="scale(0.015625)" />
              </defs>
              <use
                 xlink:href="#DejaVuSans-30"
                 id="use28" />
              <use
                 xlink:href="#DejaVuSans-2e"
                 x="63.623047"
                 id="use29" />
              <use
                 xlink:href="#DejaVuSans-32"
                 x="95.410156"
                 id="use30" />
            </g>
          </g>
        </g>
        <g
           id="xtick_3">
          <g
             id="line2d_4">
            <g
               id="g31">
              <use
                 xlink:href="#ma7124808b6"
                 x="266.70084"
                 y="638.44"
                 style="fill:#333333;stroke:#333333;stroke-width:0.8"
                 id="use31" />
            </g>
          </g>
          <g
             id="text_3">
            <!-- 0.4 -->
            <g
               style="fill:#333333"
               transform="matrix(0.11,0,0,-0.11,257.95413,653.79828)"
               id="g34">
              <defs
                 id="defs31">
                <path
                   id="DejaVuSans-34"
                   d="M 2419,4116 825,1625 h 1594 z m -166,550 h 794 V 1625 h 666 V 1100 H 3047 V 0 H 2419 V 1100 H 313 v 609 z"
                   transform="scale(0.015625)" />
              </defs>
              <use
                 xlink:href="#DejaVuSans-30"
                 id="use32" />
              <use
                 xlink:href="#DejaVuSans-2e"
                 x="63.623047"
                 id="use33" />
              <use
                 xlink:href="#DejaVuSans-34"
                 x="95.410156"
                 id="use34" />
            </g>
          </g>
        </g>
        <g
           id="xtick_4">
          <g
             id="line2d_5">
            <g
               id="g35">
              <use
                 xlink:href="#ma7124808b6"
                 x="360.50626"
                 y="638.44"
                 style="fill:#333333;stroke:#333333;stroke-width:0.8"
                 id="use35" />
            </g>
          </g>
          <g
             id="text_4">
            <!-- 0.6 -->
            <g
               style="fill:#333333"
               transform="matrix(0.11,0,0,-0.11,351.75955,653.79828)"
               id="g38">
              <defs
                 id="defs35">
                <path
                   id="DejaVuSans-36"
                   d="m 2113,2584 q -425,0 -674,-291 -248,-290 -248,-796 0,-503 248,-796 249,-292 674,-292 425,0 673,292 248,293 248,796 0,506 -248,796 -248,291 -673,291 z m 1253,1979 v -575 q -238,112 -480,171 -242,60 -480,60 -625,0 -955,-422 -329,-422 -376,-1275 184,272 462,417 279,145 613,145 703,0 1111,-427 408,-426 408,-1160 0,-719 -425,-1154 -425,-434 -1131,-434 -810,0 -1238,620 -428,621 -428,1799 0,1106 525,1764 525,658 1409,658 238,0 480,-47 242,-47 505,-140 z"
                   transform="scale(0.015625)" />
              </defs>
              <use
                 xlink:href="#DejaVuSans-30"
                 id="use36" />
              <use
                 xlink:href="#DejaVuSans-2e"
                 x="63.623047"
                 id="use37" />
              <use
                 xlink:href="#DejaVuSans-36"
                 x="95.410156"
                 id="use38" />
            </g>
          </g>
        </g>
        <g
           id="xtick_5">
          <g
             id="line2d_6">
            <g
               id="g39">
              <use
                 xlink:href="#ma7124808b6"
                 x="454.31168"
                 y="638.44"
                 style="fill:#333333;stroke:#333333;stroke-width:0.8"
                 id="use39" />
            </g>
          </g>
          <g
             id="text_5">
            <!-- 0.8 -->
            <g
               style="fill:#333333"
               transform="matrix(0.11,0,0,-0.11,445.56497,653.79828)"
               id="g42">
              <defs
                 id="defs39">
                <path
                   id="DejaVuSans-38"
                   d="m 2034,2216 q -450,0 -708,-241 -257,-241 -257,-662 0,-422 257,-663 258,-241 708,-241 450,0 709,242 260,243 260,662 0,421 -258,662 -257,241 -711,241 z m -631,268 q -406,100 -633,378 -226,279 -226,679 0,559 398,884 399,325 1092,325 697,0 1094,-325 397,-325 397,-884 0,-400 -227,-679 -226,-278 -629,-378 456,-106 710,-416 255,-309 255,-755 Q 3634,634 3220,271 2806,-91 2034,-91 1263,-91 848,271 434,634 434,1313 q 0,446 256,755 257,310 713,416 z m -231,997 q 0,-362 226,-565 227,-203 636,-203 407,0 636,203 230,203 230,565 0,363 -230,566 -229,203 -636,203 -409,0 -636,-203 -226,-203 -226,-566 z"
                   transform="scale(0.015625)" />
              </defs>
              <use
                 xlink:href="#DejaVuSans-30"
                 id="use40" />
              <use
                 xlink:href="#DejaVuSans-2e"
                 x="63.623047"
                 id="use41" />
              <use
                 xlink:href="#DejaVuSans-38"
                 x="95.410156"
                 id="use42" />
            </g>
          </g>
        </g>
        <g
           id="xtick_6">
          <g
             id="line2d_7">
            <g
               id="g43">
              <use
                 xlink:href="#ma7124808b6"
                 x="548.11713"
                 y="638.44"
                 style="fill:#333333;stroke:#333333;stroke-width:0.8"
                 id="use43" />
            </g>
          </g>
          <g
             id="text_6">
            <!-- 1.0 -->
            <g
               style="fill:#333333"
               transform="matrix(0.11,0,0,-0.11,539.37039,653.79828)"
               id="g46">
              <defs
                 id="defs43">
                <path
                   id="DejaVuSans-31"
                   d="M 794,531 H 1825 V 4091 L 703,3866 v 575 l 1116,225 h 631 V 531 H 3481 V 0 H 794 Z"
                   transform="scale(0.015625)" />
              </defs>
              <use
                 xlink:href="#DejaVuSans-31"
                 id="use44" />
              <use
                 xlink:href="#DejaVuSans-2e"
                 x="63.623047"
                 id="use45" />
              <use
                 xlink:href="#DejaVuSans-30"
                 x="95.410156"
                 id="use46" />
            </g>
          </g>
        </g>
        <text
           xml:space="preserve"
           style="font-size:14px;text-align:start;writing-mode:lr-tb;direction:ltr;text-anchor:start;fill:#000000;stroke-width:0.75"
           x="80.299583"
           y="672.0965"
           id="text230"><tspan
             sodipodi:role="line"
             id="tspan230"
             style="stroke-width:0.75"
             x="80.299583"
             y="672.0965">mean(|SHAP valuel) (average impact on model output magnitude)</tspan></text>
      </g>
      <g
         id="matplotlib.axis_2"
         transform="translate(56.34371,22.537484)">
        <g
           id="ytick_1">
          <g
             id="text_8">
            <!-- Q08334 -->
            <g
               style="fill:#333333"
               transform="matrix(0.13,0,0,-0.13,20.500312,613.49136)"
               id="g113">
              <defs
                 id="defs107">
                <path
                   id="DejaVuSans-51"
                   d="m 2522,4238 q -688,0 -1093,-513 -404,-512 -404,-1397 0,-881 404,-1394 405,-512 1093,-512 687,0 1089,512 402,513 402,1394 0,885 -402,1397 -402,513 -1089,513 z M 3406,84 4238,-825 h -763 l -691,747 q -103,-6 -158,-9 -54,-4 -104,-4 -984,0 -1574,658 -589,658 -589,1761 0,1106 589,1764 590,658 1574,658 981,0 1568,-658 588,-658 588,-1764 0,-812 -327,-1391 Q 4025,359 3406,84 Z"
                   transform="scale(0.015625)" />
                <path
                   id="DejaVuSans-33"
                   d="m 2597,2516 q 453,-97 707,-404 255,-306 255,-756 0,-690 -475,-1069 -475,-378 -1350,-378 -293,0 -604,58 -311,58 -642,174 v 609 q 262,-153 574,-231 313,-78 654,-78 593,0 904,234 311,234 311,681 0,413 -289,645 -289,233 -804,233 h -544 v 519 h 569 q 465,0 712,186 247,186 247,536 0,359 -255,551 -254,193 -729,193 -260,0 -557,-57 -297,-56 -653,-174 v 562 q 360,100 674,150 314,50 592,50 719,0 1137,-327 419,-326 419,-882 0,-388 -222,-655 -222,-267 -631,-370 z"
                   transform="scale(0.015625)" />
              </defs>
              <use
                 xlink:href="#DejaVuSans-51"
                 id="use108" />
              <use
                 xlink:href="#DejaVuSans-30"
                 x="78.710938"
                 id="use109" />
              <use
                 xlink:href="#DejaVuSans-38"
                 x="142.33398"
                 id="use110" />
              <use
                 xlink:href="#DejaVuSans-33"
                 x="205.95703"
                 id="use111" />
              <use
                 xlink:href="#DejaVuSans-33"
                 x="269.58008"
                 id="use112" />
              <use
                 xlink:href="#DejaVuSans-34"
                 x="333.20312"
                 id="use113" />
            </g>
          </g>
        </g>
        <g
           id="ytick_2">
          <g
             id="text_9">
            <!-- Q13261 -->
            <g
               style="fill:#333333"
               transform="matrix(0.13,0,0,-0.13,20.500312,583.60375)"
               id="g119">
              <use
                 xlink:href="#DejaVuSans-51"
                 id="use114" />
              <use
                 xlink:href="#DejaVuSans-31"
                 x="78.710938"
                 id="use115" />
              <use
                 xlink:href="#DejaVuSans-33"
                 x="142.33398"
                 id="use116" />
              <use
                 xlink:href="#DejaVuSans-32"
                 x="205.95703"
                 id="use117" />
              <use
                 xlink:href="#DejaVuSans-36"
                 x="269.58008"
                 id="use118" />
              <use
                 xlink:href="#DejaVuSans-31"
                 x="333.20312"
                 id="use119" />
            </g>
          </g>
        </g>
        <g
           id="ytick_3">
          <g
             id="text_10">
            <!-- Q07011 -->
            <g
               style="fill:#333333"
               transform="matrix(0.13,0,0,-0.13,20.500312,553.71613)"
               id="g125">
              <defs
                 id="defs119">
                <path
                   id="DejaVuSans-37"
                   d="M 525,4666 H 3525 V 4397 L 1831,0 H 1172 L 2766,4134 H 525 Z"
                   transform="scale(0.015625)" />
              </defs>
              <use
                 xlink:href="#DejaVuSans-51"
                 id="use120" />
              <use
                 xlink:href="#DejaVuSans-30"
                 x="78.710938"
                 id="use121" />
              <use
                 xlink:href="#DejaVuSans-37"
                 x="142.33398"
                 id="use122" />
              <use
                 xlink:href="#DejaVuSans-30"
                 x="205.95703"
                 id="use123" />
              <use
                 xlink:href="#DejaVuSans-31"
                 x="269.58008"
                 id="use124" />
              <use
                 xlink:href="#DejaVuSans-31"
                 x="333.20312"
                 id="use125" />
            </g>
          </g>
        </g>
        <g
           id="ytick_4">
          <g
             id="text_11">
            <!-- P55773 -->
            <g
               style="fill:#333333"
               transform="matrix(0.13,0,0,-0.13,22.895156,523.82851)"
               id="g131">
              <defs
                 id="defs125">
                <path
                   id="DejaVuSans-35"
                   d="M 691,4666 H 3169 V 4134 H 1269 V 2991 q 137,47 274,70 138,23 276,23 781,0 1237,-428 457,-428 457,-1159 Q 3513,744 3044,326 2575,-91 1722,-91 1428,-91 1123,-41 819,9 494,109 v 635 q 281,-153 581,-228 300,-75 634,-75 541,0 856,284 316,284 316,772 0,487 -316,771 -315,285 -856,285 -253,0 -505,-56 -251,-56 -513,-175 z"
                   transform="scale(0.015625)" />
              </defs>
              <path
                 id="use126"
                 d="M 19.671875,64.796875 V 37.40625 h 12.40625 q 6.890625,0 10.640625,3.5625 3.765625,3.5625 3.765625,10.15625 0,6.546875 -3.765625,10.109375 -3.75,3.5625 -10.640625,3.5625 z M 9.8125,72.90625 h 22.265625 q 12.265625,0 18.53125,-5.546875 6.28125,-5.546875 6.28125,-16.234375 0,-10.796875 -6.28125,-16.3125 -6.265625,-5.515625 -18.53125,-5.515625 H 19.671875 V 0 H 9.8125 Z"
                 style="stroke-width:0.015625" />
              <use
                 xlink:href="#DejaVuSans-35"
                 x="60.302734"
                 id="use127" />
              <use
                 xlink:href="#DejaVuSans-35"
                 x="123.92578"
                 id="use128" />
              <use
                 xlink:href="#DejaVuSans-37"
                 x="187.54883"
                 id="use129" />
              <use
                 xlink:href="#DejaVuSans-37"
                 x="251.17188"
                 id="use130" />
              <use
                 xlink:href="#DejaVuSans-33"
                 x="314.79492"
                 id="use131" />
            </g>
          </g>
        </g>
        <g
           id="ytick_5">
          <g
             id="text_12">
            <!-- P60568 -->
            <g
               style="fill:#333333"
               transform="matrix(0.13,0,0,-0.13,22.895156,493.94089)"
               id="g137">
              <path
                 id="use132"
                 d="M 19.671875,64.796875 V 37.40625 h 12.40625 q 6.890625,0 10.640625,3.5625 3.765625,3.5625 3.765625,10.15625 0,6.546875 -3.765625,10.109375 -3.75,3.5625 -10.640625,3.5625 z M 9.8125,72.90625 h 22.265625 q 12.265625,0 18.53125,-5.546875 6.28125,-5.546875 6.28125,-16.234375 0,-10.796875 -6.28125,-16.3125 -6.265625,-5.515625 -18.53125,-5.515625 H 19.671875 V 0 H 9.8125 Z"
                 style="stroke-width:0.015625" />
              <use
                 xlink:href="#DejaVuSans-36"
                 x="60.302734"
                 id="use133" />
              <use
                 xlink:href="#DejaVuSans-30"
                 x="123.92578"
                 id="use134" />
              <use
                 xlink:href="#DejaVuSans-35"
                 x="187.54883"
                 id="use135" />
              <use
                 xlink:href="#DejaVuSans-36"
                 x="251.17188"
                 id="use136" />
              <use
                 xlink:href="#DejaVuSans-38"
                 x="314.79492"
                 id="use137" />
            </g>
          </g>
        </g>
        <g
           id="ytick_6">
          <g
             id="text_13">
            <!-- P78423 -->
            <g
               style="fill:#333333"
               transform="matrix(0.13,0,0,-0.13,22.895156,464.05327)"
               id="g143">
              <path
                 id="use138"
                 d="M 19.671875,64.796875 V 37.40625 h 12.40625 q 6.890625,0 10.640625,3.5625 3.765625,3.5625 3.765625,10.15625 0,6.546875 -3.765625,10.109375 -3.75,3.5625 -10.640625,3.5625 z M 9.8125,72.90625 h 22.265625 q 12.265625,0 18.53125,-5.546875 6.28125,-5.546875 6.28125,-16.234375 0,-10.796875 -6.28125,-16.3125 -6.265625,-5.515625 -18.53125,-5.515625 H 19.671875 V 0 H 9.8125 Z"
                 style="stroke-width:0.015625" />
              <use
                 xlink:href="#DejaVuSans-37"
                 x="60.302734"
                 id="use139" />
              <use
                 xlink:href="#DejaVuSans-38"
                 x="123.92578"
                 id="use140" />
              <use
                 xlink:href="#DejaVuSans-34"
                 x="187.54883"
                 id="use141" />
              <use
                 xlink:href="#DejaVuSans-32"
                 x="251.17188"
                 id="use142" />
              <use
                 xlink:href="#DejaVuSans-33"
                 x="314.79492"
                 id="use143" />
            </g>
          </g>
        </g>
        <g
           id="ytick_7">
          <g
             id="text_14">
            <!-- Q07325 -->
            <g
               style="fill:#333333"
               transform="matrix(0.13,0,0,-0.13,20.500312,434.16565)"
               id="g149">
              <use
                 xlink:href="#DejaVuSans-51"
                 id="use144" />
              <use
                 xlink:href="#DejaVuSans-30"
                 x="78.710938"
                 id="use145" />
              <use
                 xlink:href="#DejaVuSans-37"
                 x="142.33398"
                 id="use146" />
              <use
                 xlink:href="#DejaVuSans-33"
                 x="205.95703"
                 id="use147" />
              <use
                 xlink:href="#DejaVuSans-32"
                 x="269.58008"
                 id="use148" />
              <use
                 xlink:href="#DejaVuSans-35"
                 x="333.20312"
                 id="use149" />
            </g>
          </g>
        </g>
        <g
           id="ytick_8">
          <g
             id="text_15">
            <!-- P80075 -->
            <g
               style="fill:#333333"
               transform="matrix(0.13,0,0,-0.13,22.895156,404.27803)"
               id="g155">
              <path
                 id="use150"
                 d="M 19.671875,64.796875 V 37.40625 h 12.40625 q 6.890625,0 10.640625,3.5625 3.765625,3.5625 3.765625,10.15625 0,6.546875 -3.765625,10.109375 -3.75,3.5625 -10.640625,3.5625 z M 9.8125,72.90625 h 22.265625 q 12.265625,0 18.53125,-5.546875 6.28125,-5.546875 6.28125,-16.234375 0,-10.796875 -6.28125,-16.3125 -6.265625,-5.515625 -18.53125,-5.515625 H 19.671875 V 0 H 9.8125 Z"
                 style="stroke-width:0.015625" />
              <use
                 xlink:href="#DejaVuSans-38"
                 x="60.302734"
                 id="use151" />
              <use
                 xlink:href="#DejaVuSans-30"
                 x="123.92578"
                 id="use152" />
              <use
                 xlink:href="#DejaVuSans-30"
                 x="187.54883"
                 id="use153" />
              <use
                 xlink:href="#DejaVuSans-37"
                 x="251.17188"
                 id="use154" />
              <use
                 xlink:href="#DejaVuSans-35"
                 x="314.79492"
                 id="use155" />
            </g>
          </g>
        </g>
        <g
           id="ytick_9">
          <g
             id="text_16">
            <!-- P78556 -->
            <g
               style="fill:#333333"
               transform="matrix(0.13,0,0,-0.13,22.895156,374.39041)"
               id="g161">
              <path
                 id="use156"
                 d="M 19.671875,64.796875 V 37.40625 h 12.40625 q 6.890625,0 10.640625,3.5625 3.765625,3.5625 3.765625,10.15625 0,6.546875 -3.765625,10.109375 -3.75,3.5625 -10.640625,3.5625 z M 9.8125,72.90625 h 22.265625 q 12.265625,0 18.53125,-5.546875 6.28125,-5.546875 6.28125,-16.234375 0,-10.796875 -6.28125,-16.3125 -6.265625,-5.515625 -18.53125,-5.515625 H 19.671875 V 0 H 9.8125 Z"
                 style="stroke-width:0.015625" />
              <use
                 xlink:href="#DejaVuSans-37"
                 x="60.302734"
                 id="use157" />
              <use
                 xlink:href="#DejaVuSans-38"
                 x="123.92578"
                 id="use158" />
              <use
                 xlink:href="#DejaVuSans-35"
                 x="187.54883"
                 id="use159" />
              <use
                 xlink:href="#DejaVuSans-35"
                 x="251.17188"
                 id="use160" />
              <use
                 xlink:href="#DejaVuSans-36"
                 x="314.79492"
                 id="use161" />
            </g>
          </g>
        </g>
        <g
           id="ytick_10">
          <g
             id="text_17">
            <!-- P80098 -->
            <g
               style="fill:#333333"
               transform="matrix(0.13,0,0,-0.13,22.895156,344.50279)"
               id="g167">
              <defs
                 id="defs161">
                <path
                   id="DejaVuSans-39"
                   d="m 703,97 v 575 q 238,-113 481,-172 244,-59 479,-59 625,0 954,420 330,420 377,1277 -181,-269 -460,-413 -278,-144 -615,-144 -700,0 -1108,423 -408,424 -408,1159 0,718 425,1152 425,435 1131,435 810,0 1236,-621 427,-620 427,-1801 Q 3622,1225 3098,567 2575,-91 1691,-91 1453,-91 1209,-44 966,3 703,97 Z m 1256,1978 q 425,0 673,290 249,291 249,798 0,503 -249,795 -248,292 -673,292 -425,0 -673,-292 -248,-292 -248,-795 0,-507 248,-798 248,-290 673,-290 z"
                   transform="scale(0.015625)" />
              </defs>
              <path
                 id="use162"
                 d="M 19.671875,64.796875 V 37.40625 h 12.40625 q 6.890625,0 10.640625,3.5625 3.765625,3.5625 3.765625,10.15625 0,6.546875 -3.765625,10.109375 -3.75,3.5625 -10.640625,3.5625 z M 9.8125,72.90625 h 22.265625 q 12.265625,0 18.53125,-5.546875 6.28125,-5.546875 6.28125,-16.234375 0,-10.796875 -6.28125,-16.3125 -6.265625,-5.515625 -18.53125,-5.515625 H 19.671875 V 0 H 9.8125 Z"
                 style="stroke-width:0.015625" />
              <use
                 xlink:href="#DejaVuSans-38"
                 x="60.302734"
                 id="use163" />
              <use
                 xlink:href="#DejaVuSans-30"
                 x="123.92578"
                 id="use164" />
              <use
                 xlink:href="#DejaVuSans-30"
                 x="187.54883"
                 id="use165" />
              <use
                 xlink:href="#DejaVuSans-39"
                 x="251.17188"
                 id="use166" />
              <use
                 xlink:href="#DejaVuSans-38"
                 x="314.79492"
                 id="use167" />
            </g>
          </g>
        </g>
        <g
           id="ytick_11">
          <g
             id="text_18">
            <!-- P80162 -->
            <g
               style="fill:#333333"
               transform="matrix(0.13,0,0,-0.13,22.895156,314.61518)"
               id="g173">
              <path
                 id="use168"
                 d="M 19.671875,64.796875 V 37.40625 h 12.40625 q 6.890625,0 10.640625,3.5625 3.765625,3.5625 3.765625,10.15625 0,6.546875 -3.765625,10.109375 -3.75,3.5625 -10.640625,3.5625 z M 9.8125,72.90625 h 22.265625 q 12.265625,0 18.53125,-5.546875 6.28125,-5.546875 6.28125,-16.234375 0,-10.796875 -6.28125,-16.3125 -6.265625,-5.515625 -18.53125,-5.515625 H 19.671875 V 0 H 9.8125 Z"
                 style="stroke-width:0.015625" />
              <use
                 xlink:href="#DejaVuSans-38"
                 x="60.302734"
                 id="use169" />
              <use
                 xlink:href="#DejaVuSans-30"
                 x="123.92578"
                 id="use170" />
              <use
                 xlink:href="#DejaVuSans-31"
                 x="187.54883"
                 id="use171" />
              <use
                 xlink:href="#DejaVuSans-36"
                 x="251.17188"
                 id="use172" />
              <use
                 xlink:href="#DejaVuSans-32"
                 x="314.79492"
                 id="use173" />
            </g>
          </g>
        </g>
        <text
           xml:space="preserve"
           style="font-size:20px;text-align:start;writing-mode:lr-tb;direction:ltr;text-anchor:start;fill:#000000;stroke-width:0.75"
           x="-1.3298792"
           y="46.435081"
           id="text231"><tspan
             sodipodi:role="line"
             id="tspan231"
             style="font-size:20px;stroke-width:0.75"
             x="-1.3298792"
             y="46.435081">P13500</tspan></text>
        <text
           xml:space="preserve"
           style="font-size:20px;text-align:start;writing-mode:lr-tb;direction:ltr;text-anchor:start;fill:#000000;stroke-width:0.75"
           x="-2.1509862"
           y="78.458054"
           id="text232"><tspan
             sodipodi:role="line"
             id="tspan232"
             style="stroke-width:0.75"
             x="-2.1509862"
             y="78.458054">014763</tspan></text>
        <text
           xml:space="preserve"
           style="font-size:20px;text-align:start;writing-mode:lr-tb;direction:ltr;text-anchor:start;fill:#000000;stroke-width:0.75"
           x="-2.9720871"
           y="107.19662"
           id="text233"><tspan
             sodipodi:role="line"
             id="tspan233"
             style="stroke-width:0.75"
             x="-2.9720871"
             y="107.19662">Q99731</tspan></text>
        <text
           xml:space="preserve"
           style="font-size:20px;text-align:start;writing-mode:lr-tb;direction:ltr;text-anchor:start;fill:#000000;stroke-width:0.75"
           x="-0.50877637"
           y="137.57738"
           id="text234"><tspan
             sodipodi:role="line"
             id="tspan234"
             style="stroke-width:0.75"
             x="-0.50877637"
             y="137.57738">P78310</tspan></text>
        <text
           xml:space="preserve"
           style="font-size:20px;text-align:start;writing-mode:lr-tb;direction:ltr;text-anchor:start;fill:#000000;stroke-width:0.75"
           x="-0.50877905"
           y="169.60036"
           id="text235"><tspan
             sodipodi:role="line"
             id="tspan235"
             style="stroke-width:0.75"
             x="-0.50877905"
             y="169.60036">P80511</tspan></text>
        <text
           xml:space="preserve"
           style="font-size:20px;text-align:start;writing-mode:lr-tb;direction:ltr;text-anchor:start;fill:#000000;stroke-width:0.75"
           x="-20.215229"
           y="197.51784"
           id="text236"><tspan
             sodipodi:role="line"
             id="tspan236"
             style="stroke-width:0.75"
             x="-20.215229"
             y="197.51784">P05231.1</tspan></text>
        <text
           xml:space="preserve"
           style="font-size:20px;text-align:start;writing-mode:lr-tb;direction:ltr;text-anchor:start;fill:#000000;stroke-width:0.75"
           x="-1.3298839"
           y="227.07748"
           id="text237"><tspan
             sodipodi:role="line"
             id="tspan237"
             style="stroke-width:0.75"
             x="-1.3298839"
             y="227.07748">075475</tspan></text>
        <text
           xml:space="preserve"
           style="font-size:20px;text-align:start;writing-mode:lr-tb;direction:ltr;text-anchor:start;fill:#000000;stroke-width:0.75"
           x="-8.719799"
           y="254.99496"
           id="text238"><tspan
             sodipodi:role="line"
             id="tspan238"
             style="stroke-width:0.75"
             x="-8.719799"
             y="254.99496">Q9UBU3</tspan></text>
        <text
           xml:space="preserve"
           style="font-size:20px;text-align:start;writing-mode:lr-tb;direction:ltr;text-anchor:start;fill:#000000;stroke-width:0.75"
           x="-2.9720881"
           y="285.37573"
           id="text239"><tspan
             sodipodi:role="line"
             id="tspan239"
             style="stroke-width:0.75"
             x="-2.9720881"
             y="285.37573">000220</tspan></text>
      </g>
      <g
         id="patch_23"
         transform="translate(56.34371,22.537484)">
        <path
           d="M 79.09,638.44 H 565.2"
           style="fill:none;stroke:#000000;stroke-width:0.8;stroke-linecap:square;stroke-linejoin:miter"
           id="path229" />
      </g>
    </g>
  </g>
  <defs
     id="defs229">
    <clipPath
       id="p13f4c6d0eb">
      <rect
         x="79.089996"
         y="10.8"
         width="486.10999"
         height="627.64001"
         id="rect229" />
    </clipPath>
  </defs>
</svg>
